<svg width="54" height="54" viewBox="0 0 54 54" xmlns="http://www.w3.org/2000/svg"><g id="Page-1" fill="none" fill-rule="evenodd"><g id="application" fill="#fff"><path d="M40 24c-.553 0-1 .447-1 1v26c0 .552-.448 1-1 1H3c-.552 0-1-.448-1-1V15h10c1.654 0 3-1.346 3-3V2h23c.552 0 1 .448 1 1v2c0 .553.447 1 1 1 .553 0 1-.447 1-1V3c0-1.654-1.346-3-3-3H15c-1.354 0-3.164.75-4.12 1.707L1.706 10.88C.75 11.835 0 13.645 0 15v36c0 1.654 1.346 3 3 3h35c1.654 0 3-1.346 3-3V25c0-.553-.447-1-1-1zM12.293 3.12c.18-.18.43-.35.707-.507V12c0 .552-.448 1-1 1H2.613c.156-.278.328-.527.508-.707l9.173-9.172z" id="Fill-1"/><path d="M43.707 7.293c-.385-.384-1.004-.392-1.397-.017l-22 21c-.11.105-.194.232-.247.372l-3 8c-.144.386-.038.82.268 1.095.19.17.428.257.67.257.152 0 .306-.034.447-.106l8-4c.096-.047.184-.11.26-.187l21-21c.39-.39.39-1.023 0-1.414l-4-4zm-18.3 24.885l-5.577 2.79 2.026-5.403L42.983 9.398 45.586 12l-20.18 20.178z" id="Fill-2"/><path d="M49 1h-.414l-4 4L50 10.414l4-4V6c0-3.955-3.27-5-5-5zm1 6.586L47.414 5l1.973-1.973c.817.1 2.41.558 2.595 2.576L50 7.586z" id="Fill-3"/></g></g></svg>