<svg width="43" height="37" viewBox="0 0 43 37" xmlns="http://www.w3.org/2000/svg"><g id="Page-1" fill="none" fill-rule="evenodd"><g id="b-1" transform="translate(1 1)" fill="#63B1FF"><path d="M41.102 33.336l-5.524-12.46c-.103-.234-.285-.42-.512-.524l-6.85-3.14c-.283.63-.58 1.26-.88 1.885l6.542 3 4.26 9.605-7.08-3.206-2.396-6.404c-.202-.54-.793-.808-1.32-.602-.525.206-.788.81-.587 1.35l2.236 5.97-7.484 4.326v-4.564l-.446.315c-.174.124-.377.186-.58.186-.204 0-.407-.062-.582-.186l-.434-.307v4.556L11.98 28.81l2.235-5.97c.2-.54-.062-1.144-.588-1.35-.527-.206-1.117.063-1.318.602l-2.4 6.404-7.07 3.206 4.257-9.605 6.526-2.996c-.3-.623-.595-1.253-.88-1.884L5.91 20.352c-.228.105-.41.29-.512.523l-5.525 12.46c-.175.395-.093.86.205 1.167.298.308.752.396 1.138.22l9.44-4.28 9.327 5.394c.052.03.106.047.162.067.027.01.052.025.08.032.084.024.172.036.26.036.088 0 .175-.01.26-.035.03-.007.057-.024.086-.035.054-.02.108-.036.157-.064l9.327-5.393 9.445 4.28c.387.175.84.087 1.138-.22.298-.308.38-.773.204-1.167" id="Fill-1"/><path d="M20.48 27.092c.36 0 .693-.194.877-.51.793-1.367 7.745-13.472 7.745-17.925 0-4.864-3.868-8.82-8.623-8.82-4.755 0-8.623 3.956-8.623 8.82 0 4.453 6.952 16.558 7.745 17.925.183.316.517.51.877.51zm0-25.167c3.628 0 6.58 3.02 6.58 6.732 0 2.89-4.166 10.974-6.58 15.31-2.415-4.336-6.582-12.418-6.582-15.31 0-3.712 2.953-6.732 6.58-6.732z" id="Fill-2"/><path d="M25.433 8.657c0-2.794-2.223-5.067-4.954-5.067-2.732 0-4.953 2.273-4.953 5.067s2.222 5.068 4.952 5.068 4.953-2.274 4.953-5.068zm-7.865 0c0-1.642 1.306-2.978 2.91-2.978 1.606 0 2.913 1.335 2.913 2.977 0 1.643-1.306 2.98-2.91 2.98-1.606 0-2.912-1.337-2.912-2.98z" id="Fill-3"/></g></g></svg>