<svg width="36" height="37" viewBox="0 0 36 37" xmlns="http://www.w3.org/2000/svg"><g id="Page-1" fill="none" fill-rule="evenodd"><g id="b-2" transform="translate(0 1)" fill="#63B1FF"><path d="M35.54 5.09c-.19-.25-.487-.4-.803-.4h-4.63l-.24 1.97h3.443c-1.025 2.488-3.82 7.922-9.357 10.348 4.24-5.087 4.215-14.548 4.212-14.967l-.008-.983h-.002c.003-.03.01-.057.01-.086 0-.542-.448-.983-1-.983H8.743c-.504 0-.917.368-.986.845h-.034l-.008.984c-.003.427-.027 10.08 4.26 15.213-5.57-2.415-8.377-7.875-9.405-10.37h3.443l-.24-1.97h-4.63c-.316 0-.614.15-.802.398-.188.25-.246.574-.154.872.04.13 3.788 11.926 14.507 13.93-.03 1.1-.353 3.856-2.542 6.546H9.64c-.662 0-1.2.67-1.2 1.49V33.7c0 .82.538 1.49 1.2 1.49h16.6c.662 0 1.2-.67 1.2-1.49v-5.774c0-.82-.538-1.49-1.2-1.49h-2.517c-2.2-2.69-2.516-5.434-2.54-6.545 10.72-2.003 14.47-13.8 14.51-13.93.093-.298.035-.62-.154-.87zM21.884 16.336c-1.126 1.116-2.42 1.725-3.944 1.857-1.504-.13-2.787-.737-3.905-1.845C9.95 12.295 9.727 3.12 9.715 1.954h16.45v.102c0 .1.025 10.01-4.28 14.28zM10.44 28.405h15v4.816h-15v-4.815zm4.19-1.97c1.63-2.525 1.993-4.945 2.055-6.245h2.51c.062 1.3.426 3.72 2.054 6.246h-6.62z" id="Fill-1"/><path d="M14.178 31.767h7.524c.552 0 1-.44 1-.984s-.448-.985-1-.985h-7.524c-.552 0-1 .44-1 .985 0 .543.448.984 1 .984" id="Fill-2"/></g></g></svg>