<svg width="31" height="41" viewBox="0 0 31 41" xmlns="http://www.w3.org/2000/svg"><g id="Page-1" fill="none" fill-rule="evenodd"><g id="f-1" fill="#0070D5"><path d="M10.346 23.114c-.852 0-1.542.693-1.542 1.55 0 .852.69 1.545 1.542 1.545.85 0 1.542-.694 1.542-1.547 0-.856-.69-1.55-1.542-1.55" id="Fill-1"/><path d="M20.67 23.114c-.852 0-1.543.693-1.543 1.55 0 .852.69 1.545 1.542 1.545.85 0 1.54-.694 1.54-1.547 0-.856-.69-1.55-1.54-1.55" id="Fill-2"/><path d="M17.273 32.055c-1.138.473-2.392.473-3.53 0-.57-.236-1.214.035-1.447.6-.234.568.034 1.218.6 1.452.84.35 1.726.525 2.612.525.885 0 1.77-.174 2.612-.525.565-.234.833-.884.6-1.45-.234-.567-.88-.838-1.447-.602" id="Fill-3"/><path d="M29.55 19.362c-.04-.05-.088-.092-.135-.132.043-.765-.04-1.68-.3-2.778l-.044-.197c-.022-.11-.065-.21-.118-.305.138-4.126-.385-7.093-.414-7.256-.844-3.982-4.567-6.317-7.67-6.8-1.826-.287-2.89-.534-3.607-.763-.2-.574-.968-1.006-1.892-1.006-.897 0-1.646.41-1.87.962-.94.275-2.253.605-3.676.804-3.1.43-6.83 2.744-7.695 6.838-.024.13-.552 3.132-.404 7.297-.034.073-.06.15-.077.23l-.046.197c-.295 1.258-.36 2.272-.27 3.097-.348.465-1.5 2.197-1.2 4.326.212 1.51 1.088 2.842 2.59 3.97.5 2.332 3.204 12.383 12.738 12.383.02 0 .04-.006.06-.007.022 0 .042.006.063.006 9.534 0 12.24-10.052 12.738-12.385 1.49-1.118 2.357-2.444 2.568-3.952.346-2.48-1.268-4.45-1.337-4.53zm-3.36 1.3c-.135.042-.14.018-.22.084-.246.05-1.464.15-3.944-1.812-.09-.076-2.28-1.85-6.506-1.85-.056 0-.11.008-.162.016-.053-.008-.106-.016-.16-.016-4.228 0-6.417 1.774-6.49 1.834-2.497 1.977-3.714 1.878-3.96 1.828-.08-.066-.087-.042-.223-.083-.596-.177-1.202-.64-.993-2.458.543-.502 10.455-9.33 23.63-.19.274 1.98-.354 2.465-.97 2.648zM4.3 9.157c.61-2.88 3.392-4.727 5.827-5.065 1.607-.223 3.07-.597 4.096-.9.466-.102 1.24-.2 2.086-.03.825.285 2.047.59 4.217.928 2.377.37 5.22 2.116 5.838 5.033.005.03.437 2.507.39 5.994-10.586-6.378-19.16-2.413-22.84.028-.05-3.5.385-5.986.385-5.986zm24.39 14.446c-.138.957-.787 1.84-1.92 2.63-.28.162-.49.442-.546.787-.07.448-1.818 10.986-10.643 10.986-.02 0-.04.005-.06.007-.02-.002-.04-.007-.062-.007-8.825 0-10.573-10.538-10.644-10.985-.052-.344-.262-.624-.54-.787-1.15-.798-1.808-1.69-1.95-2.65-.082-.566.02-1.1.175-1.546.394.35.847.58 1.298.727.22.1.603.223 1.16.223 1.06 0 2.75-.446 5.14-2.34.017-.013 1.714-1.34 5.1-1.34.054 0 .107-.01.16-.017.053.008.106.016.162.016 3.375 0 5.087 1.334 5.116 1.357 2.377 1.882 4.06 2.325 5.12 2.325.557 0 .94-.123 1.162-.224.535-.173 1.072-.465 1.513-.935.202.492.358 1.11.26 1.772z" id="Fill-4"/></g></g></svg>