<svg width="42" height="40" viewBox="0 0 42 40" xmlns="http://www.w3.org/2000/svg"><g id="Page-1" fill="none" fill-rule="evenodd"><g id="f-2" transform="translate(0 1)" fill="#0070D5"><path d="M8.475 25.027H33.54V-.187H8.476v25.214zM19.93 2.087h2.157V6.48H19.93V2.088zm11.35 20.665H10.735V2.088h6.932v6.668h6.68V2.087h6.93v20.664z" id="Fill-1"/><path d="M5.972 31.142c-.865 0-1.566.706-1.566 1.575 0 .87.7 1.576 1.566 1.576.865 0 1.565-.707 1.565-1.576 0-.87-.7-1.575-1.565-1.575" id="Fill-2"/><path d="M21.008 31.142c-.865 0-1.566.706-1.566 1.575 0 .87.7 1.576 1.566 1.576.866 0 1.565-.707 1.565-1.576 0-.87-.7-1.575-1.565-1.575" id="Fill-3"/><path d="M28.526 31.142c-.865 0-1.565.706-1.565 1.575 0 .87.7 1.576 1.566 1.576.865 0 1.566-.707 1.566-1.576 0-.87-.7-1.575-1.566-1.575" id="Fill-4"/><path d="M13.49 31.142c-.865 0-1.566.706-1.566 1.575 0 .87.7 1.576 1.566 1.576.866 0 1.566-.707 1.566-1.576 0-.87-.7-1.575-1.566-1.575" id="Fill-5"/><path d="M36.044 31.142c-.865 0-1.565.706-1.565 1.575 0 .87.7 1.576 1.564 1.576.865 0 1.566-.707 1.566-1.576 0-.87-.7-1.575-1.566-1.575" id="Fill-6"/><path d="M36.73 38.23H5.287c-2.762 0-5.008-2.26-5.008-5.038v-.95c0-2.777 2.246-5.037 5.008-5.037H36.73c2.762 0 5.01 2.26 5.01 5.037v.95c0 2.778-2.248 5.038-5.01 5.038zM5.287 29.48c-1.515 0-2.747 1.24-2.747 2.762v.95c0 1.523 1.23 2.763 2.746 2.763H36.73c1.516 0 2.747-1.24 2.747-2.763v-.95c0-1.522-1.23-2.763-2.746-2.763H5.287z" id="Fill-7"/></g></g></svg>