<svg width="36" height="36" viewBox="0 0 36 36" xmlns="http://www.w3.org/2000/svg"><g id="Page-1" fill="none" fill-rule="evenodd"><path d="M17.72 0C7.936 0 0 8.018 0 17.91c0 9.89 7.935 17.907 17.72 17.907 9.788 0 17.72-8.018 17.72-17.908C35.44 8.017 27.51 0 17.72 0zm6.297 11.02c.638 1.934.987 3.876 1.054 5.82H18.8v-5.065c1.864-.078 3.602-.374 5.202-.798.005.014.01.028.015.043zM18.8 9.685V2.26c.904.952 2.945 3.33 4.457 6.78-1.376.346-2.865.582-4.457.645zm-2.136-.024c-1.42-.083-2.91-.31-4.462-.72 1.51-3.4 3.543-5.738 4.462-6.69v7.41zm0 2.107v5.074h-6.288c.06-2.163.465-4.14 1.05-5.902 1.823.49 3.572.748 5.238.83zm0 21.596c-1.794-2.258-3.136-4.443-4.11-6.537 1.426-.353 2.797-.553 4.11-.63v7.167zm0-9.27c-1.572.076-3.22.313-4.93.75-.752-2.05-1.157-4.004-1.303-5.843h6.234v5.094zm-8.36-7.252H2.175c.21-3.13 1.323-6.015 3.087-8.383 1.437.77 2.842 1.386 4.213 1.87-.647 1.95-1.098 4.133-1.173 6.514zM8.338 19c.132 2.035.55 4.193 1.357 6.454-1.433.49-2.905 1.13-4.412 1.935C3.513 25.02 2.39 22.134 2.177 19H8.34zm2.152 8.438c.828 1.85 1.927 3.763 3.335 5.723-2.727-.71-5.167-2.15-7.104-4.102 1.29-.666 2.545-1.2 3.77-1.62zm8.308-1.263c1.475.058 2.863.263 4.153.57-1.017 2.206-2.408 4.41-4.153 6.605v-7.175zm0-2.09V19h6.217c-.144 1.936-.57 3.875-1.275 5.813-1.527-.387-3.18-.653-4.942-.727zM27.126 19h6.138c-.213 3.133-1.334 6.018-3.103 8.385-1.257-.702-2.727-1.394-4.38-1.964.797-2.247 1.214-4.395 1.346-6.42zm.036-2.16c-.075-2.366-.52-4.54-1.162-6.48 1.574-.558 2.975-1.225 4.182-1.9 1.76 2.367 2.875 5.25 3.084 8.38h-6.104zm1.644-9.99c-1.035.567-2.217 1.117-3.534 1.58-1-2.353-2.23-4.27-3.274-5.664 2.614.755 4.948 2.18 6.808 4.085zM13.473 2.76C12.44 4.13 11.23 6.018 10.236 8.33c-1.153-.407-2.334-.913-3.542-1.54 1.856-1.88 4.18-3.287 6.78-4.032zm8.17 30.395c1.432-1.993 2.542-3.936 3.374-5.816 1.408.48 2.67 1.058 3.765 1.656-1.94 1.977-4.393 3.438-7.138 4.16z" id="f-3" fill="#0070D5"/></g></svg>