<svg width="41" height="41" viewBox="0 0 41 41" xmlns="http://www.w3.org/2000/svg"><g id="Page-1" fill="none" fill-rule="evenodd"><g id="f-5" transform="translate(1)" fill="#0070D5"><path d="M37.94 19.624c-.634 0-1.15.518-1.15 1.157 0 9.664-7.798 17.527-17.385 17.527-9.583 0-17.38-7.863-17.38-17.526S9.822 3.256 19.405 3.256c3.177 0 6.26.874 8.943 2.497l1.54-2.743 1.61 6.7-8.12 2.588c-.604.19-.94.84-.752 1.45.154.495.607.812 1.095.812.115 0 .23-.018.344-.053l8.22-2.62c1.12-.316 1.777-1.494 1.475-2.588l-1.873-7.804C31.69.77 30.977.195 30.167.102c-.743-.093-1.42.235-1.768.858l-.96 1.72C24.935 1.548 22.204.94 19.406.94 8.555.94-.27 9.84-.27 20.78s8.826 19.84 19.675 19.84c10.853 0 19.682-8.9 19.682-19.84 0-.638-.514-1.156-1.148-1.156" id="Fill-1"/><path d="M19.407 9.315c1.456 0 2.88.282 4.21.816l3.085-.997C24.52 7.74 22.005 7 19.407 7 11.87 7 5.74 13.182 5.74 20.78c0 7.6 6.13 13.78 13.667 13.78 3.068 0 5.967-1 8.383-2.894.5-.393.59-1.12.202-1.624-.39-.505-1.11-.597-1.61-.204-2.01 1.575-4.422 2.408-6.975 2.408-6.27 0-11.37-5.143-11.37-11.465s5.1-11.465 11.37-11.465" id="Fill-2"/></g></g></svg>