<svg width="43" height="28" viewBox="0 0 43 28" xmlns="http://www.w3.org/2000/svg"><g id="Page-1" fill="none" fill-rule="evenodd"><g id="f-6" transform="translate(1)" fill="#0070D5"><path d="M2.294 15.738c0 .724-.57 1.312-1.274 1.312-.705 0-1.277-.588-1.277-1.312 0-.725.572-1.313 1.277-1.313s1.274.588 1.274 1.313" id="Fill-1"/><path d="M24.458 23.885c-.568.233-.998.3-1.454-.253l-2.707-4.91c-.27-.49-.876-.663-1.354-.385-.478.278-.645.9-.374 1.39l1.95 3.543.034.06h.002l.92 1.602c.08.097.157.19.238.274.667.684 1.384.898 2.02.898.728 0 1.35-.27 1.673-.41.056-.026.1-.045.145-.062l-1.094-1.747" id="Fill-2"/><path d="M19.577 25.07c-.06.035-.575.282-1.14-.43l-.01-.02-1.654-2.958c-.273-.49-.88-.66-1.356-.377-.476.28-.64.905-.366 1.394l1.566 2.8.042.074-.008.005.06.104.043.073c.774 1.1 1.705 1.444 2.492 1.444.526 0 .987-.15 1.29-.32l-.827-1.546-.13-.244" id="Fill-3"/><path d="M39.804 16.168c-.705 0-1.277.588-1.277 1.313 0 .726.572 1.313 1.277 1.313s1.277-.587 1.277-1.312c0-.724-.57-1.312-1.276-1.312" id="Fill-4"/><path d="M14.76 25.712c-.497-.004-1.138-.197-1.608-1.014L8.77 16.99H6.585V4.512h6.37l1.576-2.042H6.586V.083H-.197v2.042h4.795v17.53H-.24v2.04h6.825v-2.653h1.05l3.804 6.69c.9 1.57 2.244 2.017 3.35 2.017.395-.002.756-.06 1.06-.143l-1.09-1.895" id="Fill-5"/><path d="M36.226 3.81h4.807V1.77H34.24v2.04l-6.217-2.79-.002.004V.992L20.3.998c-.22.003-2.205.102-4.122 2.58l-5.35 7.166.268.567c.1.215 1.042 2.108 2.923 2.567.27.066.54.098.81.098.91 0 1.836-.366 2.764-1.094l3.65-3.796c.58.052 1.58.14 2.382.21l6.19 12.157c-.002.005-.004.01-.006.013-.303.582-.647 1.08-.948 1.314-.078.06-.153.102-.223.122-.02.006-.045.023-.066.026-.093.008-.304-.084-.59-.403l-4.007-6.443c-.295-.475-.91-.614-1.372-.31-.46.303-.596.935-.3 1.41l2.153 3.462.145.234h.002l1.806 2.887.016.026c.025.028.05.056.074.084.01.01.02.022.03.033.35.393.716.678 1.097.85.297.136.602.212.915.212.033 0 .066-.005.097-.006.044-.002.088-.003.132-.007.404-.042.77-.195 1.102-.42 1.048-.706 1.746-2.117 2.103-3.004l2.266-.007v1.855h6.837v-2.04h-4.85V3.81zm-5.168 15.684L24.89 7.38l.002-.03c-.54-.036-3.91-.338-3.944-.34l-.466-.043-4.15 4.333c-.684.522-1.303.723-1.848.592-.543-.13-.995-.58-1.287-.97l4.544-6.088c1.318-1.7 2.554-1.792 2.572-1.795l7.237-.006 6.69 3.005v13.444l-3.182.01z" id="Fill-6"/></g></g></svg>