<svg width="32" height="54" viewBox="0 0 32 54" xmlns="http://www.w3.org/2000/svg"><g id="Page-1" fill="none" fill-rule="evenodd"><g id="i-1" fill="#63B1FF"><path d="M15.688 53.207c-8.256 0-15.5-7.906-15.5-16.92 0-7.4 3.122-12.21 6.426-17.3 3.05-4.702 6.508-9.927 8.08-18.262.092-.48.51-.725.994-.725h.003c.49 0 .905.25.993.732 1.507 8.3 4.832 13.36 8.048 18.3 3.32 5.104 6.457 9.898 6.457 17.28 0 7.99-6.628 16.895-15.5 16.895zm-.01-47.986c-1.857 6.383-4.76 10.855-7.372 14.882-3.27 5.04-6.095 9.392-6.095 16.185 0 7.04 5.536 14.882 13.478 14.882 7.714 0 13.477-7.858 13.477-14.883 0-6.774-2.84-11.136-6.125-16.188-2.625-4.036-5.54-8.517-7.363-14.88z" id="Fill-1"/><path d="M17.008 45.733c-.476 0-.9-.34-.992-.828-.105-.553.255-1.087.803-1.192 3.672-.71 5.317-4.454 5.317-7.85 0-.562.452-1.018 1.01-1.018.56 0 1.01.456 1.01 1.02 0 4.234-2.15 8.92-6.958 9.85-.065.012-.13.018-.192.018" id="Fill-2"/></g></g></svg>