<svg width="60" height="53" viewBox="0 0 60 53" xmlns="http://www.w3.org/2000/svg"><g id="Page-1" fill="none" fill-rule="evenodd"><g id="i-2" fill="#63B1FF"><path d="M17.202 52.803c-.865 0-1.65-.2-2.332-.596-2.605-1.507-3.372-5.664-2.16-11.703 1.148-5.716 3.916-12.574 7.796-19.31C27.622 8.83 36.52.197 42.14.197c.866 0 1.65.2 2.333.595 2.605 1.508 3.372 5.664 2.16 11.703-1.148 5.716-3.916 12.574-7.796 19.31-3.585 6.228-7.805 11.77-11.882 15.606-1 .942-1.992 1.778-2.945 2.486-1.305.97-2.552 1.708-3.704 2.194-1.12.472-2.163.71-3.104.71zm24.94-50.756c-4.837 0-13.452 8.628-20.04 20.07-3.782 6.57-6.475 13.228-7.584 18.752-1.03 5.123-.565 8.673 1.274 9.736.914.53 2.218.448 3.798-.218 1.018-.43 2.136-1.094 3.323-1.975.896-.666 1.83-1.456 2.78-2.35 3.95-3.714 8.05-9.105 11.548-15.18 3.782-6.568 6.475-13.228 7.585-18.752 1.028-5.123.564-8.672-1.274-9.736-.398-.23-.872-.347-1.41-.347z" id="Fill-1"/><path d="M42.14 52.804c-5.62 0-14.518-8.635-21.635-20.997C13.23 19.17 9.132 4.117 14.87.793c.682-.395 1.466-.595 2.332-.595 5.62 0 14.517 8.634 21.635 20.996 7.276 12.637 11.373 27.692 5.635 31.014-.682.395-1.467.596-2.332.596zM17.202 2.047c-.538 0-1.012.117-1.41.347-3.58 2.073-1.87 14.283 6.31 28.488C28.69 42.325 37.304 50.955 42.14 50.955c.537 0 1.012-.118 1.41-.348 3.58-2.073 1.87-14.283-6.31-28.488C30.653 10.675 22.038 2.046 17.203 2.046z" id="Fill-2"/><path d="M29.67 37.114C15.12 37.114.07 33.144.07 26.5c0-3.016 3.207-5.76 9.028-7.727 5.51-1.86 12.817-2.886 20.575-2.886 14.552 0 29.603 3.97 29.603 10.613 0 6.643-15.05 10.614-29.602 10.614zm0-19.378c-7.562 0-14.66.99-19.985 2.79-4.94 1.668-7.773 3.846-7.773 5.974 0 4.146 11.4 8.765 27.76 8.765 16.358 0 27.758-4.62 27.758-8.765 0-4.145-11.4-8.764-27.76-8.764z" id="Fill-3"/><path d="M29.67 31.362c-2.672 0-4.846-2.18-4.846-4.862 0-2.68 2.174-4.86 4.847-4.86 2.674 0 4.85 2.18 4.85 4.86s-2.176 4.862-4.85 4.862zm0-7.874c-1.655 0-3.003 1.35-3.003 3.012 0 1.66 1.348 3.013 3.004 3.013 1.658 0 3.006-1.352 3.006-3.013 0-1.66-1.348-3.012-3.005-3.012z" id="Fill-4"/></g></g></svg>