<svg width="38" height="59" viewBox="0 0 38 59" xmlns="http://www.w3.org/2000/svg"><g id="Page-1" fill="none" fill-rule="evenodd"><g id="i-3" transform="translate(1)" fill="#63B1FF"><path d="M5.234 58.274c-.14 0-.275-.03-.405-.088-.5-.226-.728-.824-.504-1.33l2.046-4.674c.608.096 1.19.143 1.77.143h.345l-2.343 5.35c-.16.363-.517.6-.91.6" id="Fill-1"/><path d="M31.27 58.274c-.394 0-.75-.236-.91-.6l-2.345-5.35h.352c.577 0 1.157-.046 1.764-.14l2.047 4.67c.223.508-.004 1.106-.505 1.332-.13.058-.264.088-.403.088" id="Fill-2"/><path d="M8.63 42.53c-2.054 0-3.726-1.695-3.726-3.778s1.672-3.778 3.726-3.778c2.055 0 3.726 1.695 3.726 3.778s-1.67 3.78-3.726 3.78zm0-5.964c-1.19 0-2.157.98-2.157 2.186 0 1.207.968 2.187 2.157 2.187 1.19 0 2.157-.98 2.157-2.188 0-1.206-.967-2.186-2.157-2.186z" id="Fill-3"/><path d="M27.873 42.53c-2.055 0-3.727-1.695-3.727-3.778s1.672-3.778 3.727-3.778c2.054 0 3.725 1.695 3.725 3.778s-1.67 3.78-3.725 3.78zm0-5.964c-1.19 0-2.157.98-2.157 2.186 0 1.207.967 2.187 2.157 2.187s2.156-.98 2.156-2.188c0-1.206-.968-2.186-2.157-2.186z" id="Fill-4"/><path d="M21.944 5.275V2.332h-7.38v2.943h-1.99V2.333l-.846-.003c-1.74 0-2.018.15-2.687 1.454-.17.336-.51.544-.882.544-.16 0-.315-.04-.46-.114-.486-.258-.675-.87-.422-1.362C8.516.435 9.81.312 11.822.312l12.2.002c2.294 0 3.895.175 5.195 2.508.27.484.1 1.1-.377 1.374-.15.087-.318.13-.49.13-.357 0-.69-.195-.866-.51-.67-1.203-1.185-1.452-3.067-1.478l-.483-.008v2.945h-1.99" id="Fill-5"/><path d="M8.238 48.86c-4.69 0-8.505-3.87-8.505-8.628V17.38c0-4.756 3.816-8.625 8.505-8.625h20.027c4.69 0 8.505 3.87 8.505 8.625v22.852c0 4.758-3.816 8.628-8.505 8.628H8.238zm-6.515-8.628c0 3.645 2.923 6.61 6.515 6.61h20.027c3.592 0 6.514-2.965 6.514-6.61V27.877H1.722v12.355zm17.523-14.374H34.78v-7.933H19.245v7.933zm-17.523 0h15.533v-7.933H1.723v7.933zm6.515-15.085c-2.79 0-5.27 1.806-6.17 4.495l-.21.64h32.788l-.213-.64c-.898-2.69-3.377-4.495-6.168-4.495H8.238z" id="Fill-6"/></g></g></svg>