<svg width="53" height="53" viewBox="0 0 53 53" xmlns="http://www.w3.org/2000/svg"><g id="Page-1" fill="none" fill-rule="evenodd"><g id="i-4" transform="translate(1)" fill="#63B1FF"><path d="M25.87 34.55c-4.338 0-7.87-3.57-7.87-7.96 0-4.388 3.532-7.96 7.87-7.96 4.34 0 7.872 3.572 7.872 7.96 0 4.39-3.53 7.96-7.87 7.96zm0-14.146c-3.372 0-6.116 2.776-6.116 6.187 0 3.412 2.744 6.188 6.117 6.188 3.374 0 6.12-2.776 6.12-6.187 0-3.41-2.746-6.186-6.12-6.186z" id="Fill-1"/><path d="M33.025 52.15c-.256 0-.504-.114-.673-.32l-6.48-7.84-6.482 7.84c-.224.272-.585.383-.92.283-2.6-.772-5.05-1.937-7.28-3.46-.293-.202-.44-.562-.368-.913l2.035-10.088-10.426-.244c-.345-.008-.654-.22-.788-.545-1.013-2.454-1.653-5.05-1.9-7.716-.032-.36.156-.707.475-.87l9.426-4.868-6.598-8.777c-.212-.282-.238-.663-.066-.97 1.248-2.252 2.817-4.307 4.66-6.108.26-.253.645-.32.972-.17l10.037 4.602 2.737-10.954c.086-.348.373-.61.724-.66 2.515-.365 5.01-.365 7.52 0 .352.05.64.312.726.66l2.738 10.954L43.13 7.385c.327-.15.713-.083.97.17 1.843 1.8 3.412 3.855 4.664 6.107.17.308.145.69-.066.97L42.1 23.41l9.425 4.866c.32.164.508.51.474.87-.248 2.668-.888 5.263-1.9 7.717-.134.324-.443.537-.79.545l-10.425.244L40.92 47.74c.07.35-.074.71-.368.912-2.23 1.524-4.68 2.69-7.28 3.46-.082.025-.166.037-.247.037zm-20.367-4.643c1.79 1.16 3.722 2.08 5.76 2.736l6.78-8.203c.334-.402 1.012-.402 1.345 0l6.78 8.203c2.04-.657 3.972-1.575 5.76-2.736l-2.125-10.54c-.052-.257.012-.524.174-.73.16-.205.405-.327.664-.333l10.9-.255c.75-1.947 1.252-3.984 1.496-6.073l-9.824-5.07c-.23-.12-.398-.337-.455-.592-.058-.257-.002-.526.156-.735l6.88-9.15c-1.018-1.736-2.24-3.34-3.646-4.78l-10.44 4.79c-.238.108-.51.105-.744-.01-.234-.113-.405-.326-.47-.58l-2.847-11.4c-1.965-.238-3.898-.238-5.863 0l-2.848 11.4c-.064.254-.236.467-.47.58-.234.115-.505.118-.74.01L8.436 9.25c-1.405 1.443-2.628 3.045-3.644 4.778l6.88 9.152c.157.21.215.478.157.735-.058.255-.225.472-.456.592l-9.823 5.07c.244 2.088.746 4.125 1.498 6.072l10.9.254c.258.006.502.128.663.333.163.206.227.473.175.73l-2.127 10.54z" id="Fill-2"/></g></g></svg>