<svg width="41" height="53" viewBox="0 0 41 53" xmlns="http://www.w3.org/2000/svg"><g id="Page-1" fill="none" fill-rule="evenodd"><g id="i-5" fill="#63B1FF"><path d="M19.66 45.117V21.883l-17.456 6.23 4.593 15.306c-.092-.006-.184-.008-.274-.008-.53 0-1.055.082-1.567.243L.2 27.803c-.143-.472.108-.97.57-1.135l5.994-2.14V14.44c0-.508.41-.92.915-.92H33.47c.505 0 .915.412.915.92v10.09l5.995 2.14c.462.164.712.663.57 1.135l-4.78 15.93c-.498-.153-1.006-.23-1.516-.23-.108 0-.22.004-.33.01l4.622-15.4-17.457-6.23V45.18c-.02.02-.886.958-.886.958s-.935-1.012-.943-1.02zM20.9 19.77c.1 0 .198.015.29.048l11.368 4.057V15.36H8.596v8.515l11.368-4.057c.09-.033.19-.05.29-.05.042 0 .083.004.124.01l.05.005.154-.017.14.017.052-.006c.04-.006.082-.008.124-.008z" id="Fill-1"/><path d="M28.158 10.247V6.7H12.994v3.547h-1.83v-4.47c0-.508.41-.922.915-.922h7.58V.985c0-.507.41-.92.916-.92.505 0 .915.413.915.92v3.87h7.584c.504 0 .915.414.915.922v4.47h-1.832" id="Fill-2"/><path d="M12.85 29.58c-.378 0-.723-.24-.856-.597-.086-.23-.078-.48.022-.705.1-.224.282-.396.51-.483l2.94-1.117c.103-.04.212-.06.322-.06.38 0 .723.24.857.597.086.23.078.48-.022.705-.102.225-.283.396-.512.483l-2.937 1.118c-.104.04-.213.06-.323.06" id="Fill-3"/><path d="M28.302 29.58c-.11 0-.22-.02-.323-.06l-2.94-1.117c-.23-.087-.41-.258-.51-.483-.1-.224-.11-.475-.023-.705.133-.357.477-.597.857-.597.11 0 .218.02.322.06l2.94 1.117c.228.087.41.26.51.483.1.224.11.475.022.705-.134.357-.477.597-.856.597" id="Fill-4"/><path d="M39.333 52.77c-.258 0-.495-.105-.67-.295l-3.75-4.063-.478-.002-.16.14-2.54 2.753c-.45.487-1.078.765-1.725.765-.646 0-1.274-.278-1.723-.764l-2.643-2.864-.183-.03h-.35l-2.783 3.013c-.448.487-1.076.766-1.723.766-.646 0-1.275-.28-1.724-.767l-2.865-3.103-.506-.002-2.643 2.864c-.45.487-1.077.766-1.724.766-.646 0-1.275-.28-1.723-.766l-2.59-2.805-.173-.058h-.382l-.135.14-3.65 3.955c-.175.19-.414.294-.67.294-.233-.002-.455-.09-.624-.248-.37-.346-.39-.93-.047-1.304l3.65-3.954c.448-.487 1.076-.766 1.723-.766s1.276.28 1.723.766l2.644 2.863.506.002 2.64-2.866c.45-.487 1.08-.766 1.725-.766.648 0 1.277.28 1.725.766l2.865 3.103.483.002.154-.142 2.652-2.873c.448-.487 1.076-.766 1.723-.766s1.275.28 1.724.765l2.67 2.894h.507l2.67-2.895c.45-.486 1.077-.765 1.723-.765.647 0 1.276.28 1.725.765l3.62 3.925c.167.18.255.415.245.66-.008.247-.112.475-.29.643-.17.16-.392.247-.624.247" id="Fill-5"/></g></g></svg>