<svg width="205" height="59" viewBox="0 0 205 59" xmlns="http://www.w3.org/2000/svg" preserveAspectRatio="xMinYMid meet"><g id="Page-1" fill="none" fill-rule="evenodd"><g id="logo" transform="translate(0 1)"><path d="M61.927 17.473l1.513-3.03c.51.383 1.178.745 1.912.745.956 0 1.38-.362 1.823-1.13l-5.36-10.79h4.315l3.202 7.057 3.224-7.058h4.314l-6.026 12.125c-.934 1.855-2.424 3.235-5.16 3.235-1.422 0-2.845-.408-3.757-1.154" id="Fill-1" fill="#fff"/><path d="M77.968 18.356V3.266h3.825v8.89l6.004-8.89h3.958v15.09h-3.847v-9.32l-6.248 9.32h-3.692" id="Fill-2" fill="#fff"/><path d="M105.27 18.356H93.972V3.266h3.825v11.696h6.16V3.267h3.823v11.695h1.335v6.176h-3.846v-2.782" id="Fill-3" fill="#fff"/><path d="M116.01 18.356V3.266h7.428c3.336 0 5.16 2.286 5.16 5.023 0 2.713-1.824 4.998-5.16 4.998h-3.602v5.068h-3.825zm8.696-10.067c0-1.04-.756-1.63-1.78-1.63h-3.09v3.235h3.09c1.024 0 1.78-.588 1.78-1.606z" id="Fill-4" fill="#fff"/><path d="M129.332 10.823c0-4.592 3.402-7.805 7.94-7.805 4.534 0 7.914 3.213 7.914 7.805 0 4.59-3.38 7.804-7.915 7.804-4.536 0-7.938-3.213-7.938-7.804zm11.963 0c0-2.466-1.578-4.366-4.024-4.366-2.468 0-4.047 1.9-4.047 4.366 0 2.443 1.58 4.365 4.048 4.365 2.447 0 4.025-1.922 4.025-4.365z" id="Fill-5" fill="#fff"/><path d="M156.884 18.356v-6.063h-6.158v6.063H146.9V3.266h3.826V8.9h6.158V3.267h3.825v15.09h-3.826" id="Fill-6" fill="#fff"/><path d="M171.988 18.356l-3.89-5.678-1.002 1.266v4.412h-3.824V3.266h3.824v6.2l4.56-6.2h4.713l-5.76 7.06 6.07 8.03h-4.692" id="Fill-7" fill="#fff"/><path d="M181.25 18.356V6.66h-4.158V3.267h12.118V6.66h-4.135v11.696h-3.825" id="Fill-8" fill="#fff"/><path d="M188.96 15.188c1.422-.226 2.267-.836 2.69-4.275l.89-7.646h11.05v11.695h1.334v6.176h-3.846v-2.782h-8.294v2.782h-3.825v-5.95zm4.87-.226h5.936V6.66h-3.78l-.534 4.547c-.2 1.697-.778 2.896-1.623 3.755z" id="Fill-9" fill="#fff"/><path d="M62.64 30.567c0-4.66 3.468-7.804 8.026-7.804 3.58 0 5.493 2.06 6.47 4.05l-3.29 1.583c-.49-1.2-1.757-2.194-3.18-2.194-2.424 0-4.136 1.9-4.136 4.365 0 2.466 1.712 4.366 4.136 4.366 1.423 0 2.69-.995 3.18-2.194l3.29 1.582c-.955 1.946-2.89 4.05-6.47 4.05-4.558 0-8.027-3.168-8.027-7.805" id="Fill-10" fill="#fff"/><path d="M85.744 38.1v-7.895h-3.847V38.1h-3.424V27.174h10.695V38.1h-3.424" id="Fill-11" fill="#fff"/><path d="M90.726 32.626c0-3.167 2.357-5.723 5.715-5.723 3.18 0 5.493 2.375 5.493 6.085v.746h-7.65c.2 1.018 1.135 1.946 2.69 1.946.757 0 2.07-.34 2.67-.928l1.445 2.172c-1.067.972-2.846 1.448-4.492 1.448-3.313 0-5.87-2.195-5.87-5.746zm5.715-3.03c-1.49 0-2.068 1.084-2.2 1.876h4.424c-.09-.77-.644-1.877-2.223-1.877z" id="Fill-12" fill="#fff"/><path d="M110.206 38.1l-2.357-3.868-1.024 1.244V38.1h-3.424V27.174h3.424v4.366l3.27-4.366h4.135l-3.957 4.977 4.158 5.95h-4.224" id="Fill-13" fill="#fff"/><path d="M117.368 38.1v-7.895h-2.936v-3.03h9.272v3.03h-2.913V38.1h-3.422" id="Fill-14" fill="#fff"/><path d="M128.51 36.81v5.452h-3.425V27.174h3.424v1.267c.844-1.04 1.955-1.537 3.178-1.537 2.69 0 4.714 2.035 4.714 5.723 0 3.71-2.023 5.746-4.714 5.746-1.2 0-2.29-.476-3.18-1.56zm4.402-4.184c0-1.63-1.024-2.647-2.358-2.647-.734 0-1.623.406-2.045.994V34.3c.42.565 1.31.995 2.044.995 1.334 0 2.358-1.018 2.358-2.67z" id="Fill-15" fill="#fff"/><path d="M52.762 3.3v11.2L34.177 33.375c-1.417 1.46-3.382 2.368-5.557 2.38-4.35.028-7.9-3.54-7.925-7.966-.012-2.212.857-4.22 2.276-5.68l18.422-18.81h11.37" id="Fill-16" fill="#B01C33"/><path d="M38.584 37.593c-.027.028-.06.053-.085.08-2.543 2.917-6.235 4.777-10.368 4.802-7.717.046-14.01-6.28-14.055-14.13-.025-4.205 1.76-7.983 4.596-10.602.027-.028.05-.06.077-.088L35.158.765c-2.323-.62-4.76-.95-7.275-.934C12.45-.075.013 12.73.103 28.43c.093 15.7 12.678 28.352 28.112 28.26 15.433-.094 27.87-12.898 27.78-28.6-.015-2.557-.368-5.032-1.004-7.386l-16.406 16.89" id="Fill-17" fill="#fff"/><path id="Fill-18" fill="#fff" d="M62.666 44.35h142.27v.41H62.667v-.41z"/><path d="M66.204 56.515v-4.46h-2.538v4.46h-1.144v-5.49h4.835v5.49h-1.153" id="Fill-19" fill="#fff"/><path d="M68.86 56.515v-5.49h2.515c1.168 0 1.804.807 1.804 1.77 0 .955-.645 1.77-1.805 1.77h-1.37v1.95H68.86zm3.15-3.72c0-.46-.337-.74-.788-.74h-1.218v1.48h1.218c.45 0 .79-.287.79-.74z" id="Fill-20" fill="#fff"/><path d="M74.145 53.775c0-1.655 1.185-2.84 2.804-2.84 1.627 0 2.812 1.185 2.812 2.84 0 1.654-1.185 2.838-2.813 2.838-1.62 0-2.805-1.184-2.805-2.838zm4.44 0c0-1.03-.645-1.802-1.636-1.802-.992 0-1.628.773-1.628 1.802 0 1.02.636 1.802 1.627 1.802.99 0 1.635-.782 1.635-1.802z" id="Fill-21" fill="#fff"/><path d="M85.658 56.515v-3.843l-1.514 3.843h-.5l-1.515-3.843v3.843h-1.145v-5.49h1.603l1.306 3.317 1.305-3.316h1.61v5.49H85.66" id="Fill-22" fill="#fff"/><path d="M89.47 51.026v1.95h1.37c1.16 0 1.804.815 1.804 1.77 0 .962-.637 1.77-1.805 1.77h-2.515v-5.49h1.144zm0 2.98v1.48h1.216c.45 0 .79-.28.79-.74 0-.453-.34-.74-.79-.74H89.47zm3.625-2.98h1.152v5.49h-1.152v-5.49z" id="Fill-23" fill="#fff"/><path d="M102.62 51.026v5.49H95.76v-5.49h1.144v4.46h1.708v-4.46h1.152v4.46h1.7v-4.46h1.153" id="Fill-24" fill="#fff"/><path d="M103.762 55.577c.54 0 .854-.297 1.023-1.745l.314-2.806h3.82v5.49h-1.154v-4.462h-1.635l-.21 1.86c-.256 2.28-1.063 2.7-2.158 2.7v-1.037" id="Fill-25" fill="#fff"/><path d="M110.425 56.515v-5.49h3.804v1.03h-2.66v1.16h2.602v1.03h-2.602v1.24h2.66v1.03h-3.805" id="Fill-26" fill="#fff"/><path d="M119.3 56.515V54.21h-2.538v2.305h-1.144v-5.49h1.144v2.157h2.54v-2.156h1.15v5.49h-1.15" id="Fill-27" fill="#fff"/><path d="M125.64 56.515V54.21h-2.536v2.305h-1.145v-5.49h1.144v2.157h2.537v-2.156h1.154v5.49h-1.153" id="Fill-28" fill="#fff"/><path d="M129.444 51.026v1.95h1.37c1.16 0 1.805.815 1.805 1.77 0 .962-.638 1.77-1.806 1.77H128.3v-5.49h1.144zm0 2.98v1.48h1.217c.452 0 .79-.28.79-.74 0-.453-.338-.74-.79-.74h-1.216zm3.626-2.98h1.153v5.49h-1.153v-5.49z" id="Fill-29" fill="#fff"/><path d="M135.736 56.515v-5.49h1.145v3.548l2.49-3.547h1.177v5.49h-1.144v-3.68l-2.562 3.68h-1.104zm2.41-5.744c-.572 0-1.088-.28-1.418-.723l.45-.387c.218.313.55.51.968.51.402 0 .733-.19.958-.51l.452.387c-.322.444-.83.724-1.41.724z" id="Fill-30" fill="#fff"/><path d="M148.208 56.515l-1.346-2.008-1.354 2.008h-1.36l1.95-2.815-1.83-2.674h1.362l1.232 1.876 1.218-1.876h1.377l-1.83 2.666 1.95 2.823h-1.37" id="Fill-31" fill="#fff"/><path d="M150 53.775c0-1.655 1.185-2.84 2.805-2.84 1.627 0 2.812 1.185 2.812 2.84 0 1.654-1.185 2.838-2.812 2.838-1.62 0-2.804-1.184-2.804-2.838zm4.44 0c0-1.03-.644-1.802-1.635-1.802-.99 0-1.628.773-1.628 1.802 0 1.02.637 1.802 1.628 1.802.99 0 1.635-.782 1.635-1.802z" id="Fill-32" fill="#fff"/><path d="M156.377 55.577c.54 0 .853-.297 1.023-1.745l.314-2.806h3.82v5.49h-1.153v-4.462h-1.635l-.21 1.86c-.257 2.28-1.063 2.7-2.158 2.7v-1.037" id="Fill-33" fill="#fff"/><path d="M162.665 55.577c.548-.075.854-.297 1.023-1.745l.314-2.806h3.82v4.46h.483v2.04h-1.144v-1.01h-3.35v1.01h-1.145v-1.95zm1.506-.09h2.5v-3.433h-1.637l-.21 1.86c-.08.74-.313 1.25-.652 1.572z" id="Fill-34" fill="#fff"/><path d="M169.493 56.515v-5.49h1.144v3.548l2.49-3.547h1.176v5.49h-1.144v-3.68l-2.564 3.68h-1.103" id="Fill-35" fill="#fff"/><path d="M179.495 56.515V54.21h-2.538v2.305h-1.144v-5.49h1.144v2.157h2.538v-2.156h1.153v5.49h-1.153" id="Fill-36" fill="#fff"/><path d="M182.154 56.515v-5.49h3.804v1.03h-2.66v4.46h-1.144" id="Fill-37" fill="#fff"/><path d="M191.09 56.515v-4.46h-1.573v-1.03h4.287v1.03h-1.563v4.46h-1.15" id="Fill-38" fill="#fff"/><path d="M198.123 56.515l-1.627-2.197-.42.51v1.687h-1.144v-5.49h1.145v2.453l1.9-2.452h1.41l-2.135 2.576 2.28 2.913h-1.41" id="Fill-39" fill="#fff"/><path d="M199.86 53.775c0-1.688 1.25-2.84 2.86-2.84 1.185 0 1.87.66 2.248 1.342l-.983.494c-.225-.444-.71-.797-1.265-.797-.975 0-1.684.765-1.684 1.802s.71 1.802 1.684 1.802c.556 0 1.04-.346 1.265-.8l.983.487c-.386.683-1.063 1.35-2.248 1.35-1.61 0-2.86-1.152-2.86-2.84" id="Fill-40" fill="#fff"/></g></g></svg>