<svg width="54" height="54" viewBox="0 0 54 54" xmlns="http://www.w3.org/2000/svg"><g id="Page-1" fill="none" fill-rule="evenodd"><g id="shedule" fill="#fff"><path d="M49 5h-7V3c0-1.654-1.346-3-3-3h-1c-1.654 0-3 1.346-3 3v2H19V3c0-1.654-1.346-3-3-3h-1c-1.654 0-3 1.346-3 3v2H5c-2.757 0-5 2.243-5 5v39c0 2.757 2.243 5 5 5h44c2.757 0 5-2.243 5-5V10c0-2.757-2.243-5-5-5zM5 7h7v2c0 1.654 1.346 3 3 3h3c.552 0 1-.448 1-1s-.448-1-1-1h-3c-.55 0-1-.45-1-1V3c0-.55.45-1 1-1h1c.55 0 1 .45 1 1v2c-.552 0-1 .448-1 1s.448 1 1 1h18v2c0 1.654 1.346 3 3 3h3c.552 0 1-.448 1-1s-.448-1-1-1h-3c-.55 0-1-.45-1-1V3c0-.55.45-1 1-1h1c.55 0 1 .45 1 1v2c-.552 0-1 .448-1 1s.448 1 1 1h9c1.654 0 3 1.346 3 3v8H2v-8c0-1.654 1.346-3 3-3zm44 45H5c-1.654 0-3-1.346-3-3V20h50v29c0 1.654-1.346 3-3 3z" id="Fill-1"/><path d="M15.4 30.2c-.442.33-.53.958-.2 1.4.33.442.957.533 1.4.2L19 30v14c0 .552.448 1 1 1s1-.448 1-1V28l-1.6-.8-4 3" id="Fill-2"/><path d="M32.824 34.068L31 34.024V30h6c.552 0 1-.448 1-1s-.448-1-1-1h-8v7.976l3.8.09c1.874 0 3.4 1.526 3.4 3.4 0 1.875-1.526 3.4-3.4 3.4-1.324 0-2.537-.778-3.09-1.982-.232-.503-.827-.723-1.326-.492-.502.23-.722.824-.492 1.326.878 1.912 2.804 3.148 4.908 3.148 2.977 0 5.4-2.422 5.4-5.4 0-2.976-2.423-5.4-5.376-5.398" id="Fill-3"/></g></g></svg>