<?xml version="1.0" encoding="UTF-8" standalone="no"?>
<svg width="54px" height="54px" viewBox="0 0 54 54" version="1.1" xmlns="http://www.w3.org/2000/svg" xmlns:xlink="http://www.w3.org/1999/xlink" xmlns:sketch="http://www.bohemiancoding.com/sketch/ns">
    <!-- Generator: Sketch 3.0.4 (8053) - http://www.bohemiancoding.com/sketch -->
    <title>application</title>
    <desc>Created with Sketch.</desc>
    <defs></defs>
    <g id="Page-1" stroke="none" stroke-width="1" fill="none" fill-rule="evenodd" sketch:type="MSPage">
        <g id="application" sketch:type="MSLayerGroup" fill="#FFFFFF">
            <path d="M40,24 C39.447,24 39,24.447 39,25 L39,51 C39,51.552 38.552,52 38,52 L3,52 C2.448,52 2,51.552 2,51 L2,15 L12,15 C13.654,15 15,13.654 15,12 L15,2 L38,2 C38.552,2 39,2.448 39,3 L39,5 C39,5.553 39.447,6 40,6 C40.553,6 41,5.553 41,5 L41,3 C41,1.346 39.654,0 38,0 L15,0 C13.646,0 11.836,0.75 10.879,1.707 L1.707,10.879 C0.75,11.836 0,13.646 0,15 L0,51 C0,52.654 1.346,54 3,54 L38,54 C39.654,54 41,52.654 41,51 L41,25 C41,24.447 40.553,24 40,24 L40,24 Z M12.293,3.121 C12.473,2.941 12.722,2.769 13,2.613 L13,12 C13,12.552 12.552,13 12,13 L2.613,13 C2.769,12.722 2.941,12.473 3.121,12.293 L12.293,3.121 L12.293,3.121 Z" id="Fill-1" sketch:type="MSShapeGroup"></path>
            <path d="M43.707,7.293 C43.322,6.909 42.703,6.901 42.31,7.276 L20.31,28.276 C20.2,28.381 20.116,28.508 20.063,28.648 L17.063,36.648 C16.919,37.034 17.025,37.468 17.331,37.743 C17.519,37.912 17.758,38 18,38 C18.152,38 18.306,37.966 18.447,37.894 L26.447,33.894 C26.543,33.847 26.631,33.783 26.707,33.707 L47.707,12.707 C48.098,12.316 48.098,11.684 47.707,11.293 L43.707,7.293 L43.707,7.293 Z M25.407,32.178 L19.83,34.967 L21.856,29.565 L42.983,9.398 L45.586,12 L25.407,32.178 L25.407,32.178 Z" id="Fill-2" sketch:type="MSShapeGroup"></path>
            <path d="M49,1 L48.586,1 L44.586,5 L50,10.414 L54,6.414 L54,6 C54,2.045 50.73,1 49,1 L49,1 Z M50,7.586 L47.414,5 L49.387,3.027 C50.204,3.128 51.798,3.585 51.982,5.603 L50,7.586 L50,7.586 Z" id="Fill-3" sketch:type="MSShapeGroup"></path>
        </g>
    </g>
</svg>