<svg width="25" height="25" viewBox="0 0 25 25" xmlns="http://www.w3.org/2000/svg"><g id="arrow" fill="#C6CDD2" fill-rule="evenodd"><path d="M10 7.707l4.943 4.943.707-.707s-1.964-1.964-2.947-2.947L10.707 7 10 7.707z" id="Imported-Layers"/><path d="M10 16.293l4.943-4.943.707.707s-1.964 1.964-2.947 2.947L10.707 17 10 16.293z" id="Imported-Layers-2"/><path d="M22.145 12.073c0 5.563-4.51 10.072-10.072 10.072C6.51 22.145 2 17.635 2 12.073 2 6.51 6.51 2 12.073 2V0C5.406 0 0 5.406 0 12.073c0 6.667 5.406 12.072 12.073 12.072 6.667 0 12.072-5.405 12.072-12.072C24.145 5.406 18.74 0 12.073 0v2c5.562 0 10.072 4.51 10.072 10.073z" id="Imported-Layers"/></g></svg>