<svg width="23px" height="23px" viewBox="0 0 23 23" version="1.1" xmlns="http://www.w3.org/2000/svg" xmlns:xlink="http://www.w3.org/1999/xlink" xmlns:sketch="http://www.bohemiancoding.com/sketch/ns">
    <g id="Page-1" stroke="none" stroke-width="1" fill="none" fill-rule="evenodd" sketch:type="MSPage">
        <path d="M11.5,0 C5.15517241,0 0,5.15517241 0,11.5 C0,17.8448276 5.15517241,23 11.5,23 C17.8448276,23 23,17.8448276 23,11.5 C23,5.05603448 17.8448276,0 11.5,0 L11.5,0 Z M11.5,22 C5.725,22 1,17.275 1,11.5 C1,5.725 5.725,1 11.5,1 C17.275,1 22,5.725 22,11.5 C22,17.275 17.275,22 11.5,22 L11.5,22 Z M7,12.05 L8.536,12.4166667 L8.632,12.325 L8.536,12.875 L12.856,17 L13.816,15.9916667 L9.208,11.6833333 L14.2,7.00833333 L13.336,6 L7,12.05 Z" id="arrow-left" fill="#000000" sketch:type="MSShapeGroup"></path>
    </g>
</svg>