<?xml version="1.0" encoding="UTF-8" standalone="no"?>
<svg width="43px" height="37px" viewBox="0 0 43 37" version="1.1" xmlns="http://www.w3.org/2000/svg" xmlns:xlink="http://www.w3.org/1999/xlink" xmlns:sketch="http://www.bohemiancoding.com/sketch/ns">
    <!-- Generator: Sketch 3.0.4 (8053) - http://www.bohemiancoding.com/sketch -->
    <title>b-1</title>
    <desc>Created with Sketch.</desc>
    <defs></defs>
    <g id="Page-1" stroke="none" stroke-width="1" fill="none" fill-rule="evenodd" sketch:type="MSPage">
        <g id="b-1" sketch:type="MSLayerGroup" transform="translate(1.000000, 1.000000)" fill="#63B1FF">
            <path d="M41.10225,33.3358065 L35.5780833,20.8745645 C35.4754167,20.6424194 35.2934167,20.4568226 35.0659167,20.3523871 L28.217,17.2115645 C27.9329167,17.8417581 27.6371667,18.4731452 27.33675,19.0967742 L33.87825,22.0967581 L38.1365833,31.7024355 L31.059,28.4959677 L28.6615,22.0919839 C28.4596667,21.5530968 27.8693333,21.2839516 27.3431667,21.4898387 C26.817,21.6963226 26.5539167,22.3002581 26.7551667,22.8391452 L28.9905,28.8086774 L21.50575,33.1364839 L21.50575,28.5717581 L21.0600833,28.8868548 C20.8856667,29.0109839 20.6826667,29.0730484 20.4790833,29.0730484 C20.2760833,29.0730484 20.0725,29.0109839 19.8975,28.8868548 L19.4640833,28.5795161 L19.4640833,33.1364839 L11.9793333,28.8086774 L14.2146667,22.8391452 C14.4165,22.3002581 14.1534167,21.6963226 13.6266667,21.4898387 C13.0999167,21.2839516 12.5095833,21.5530968 12.3089167,22.0919839 L9.91083333,28.4959677 L2.83966667,31.7024355 L7.09741667,22.0967581 L13.6231667,19.1009516 C13.3233333,18.4773226 13.0275833,17.8465323 12.7435,17.2163387 L5.90975,20.3523871 C5.68225,20.4568226 5.50025,20.6424194 5.39758333,20.8745645 L-0.126583333,33.3358065 C-0.301583333,33.7302742 -0.219916667,34.1945645 0.0781666667,34.5025 C0.37625,34.8104355 0.830083333,34.8975645 1.21625,34.7221129 L10.6563333,30.4426452 L19.9826667,35.8356935 C20.0345833,35.8655323 20.0894167,35.8828387 20.1448333,35.903129 C20.1716667,35.9126774 20.19675,35.9281935 20.2241667,35.9353548 C20.3093333,35.958629 20.3974167,35.9705645 20.4849167,35.9705645 C20.573,35.9705645 20.6605,35.958629 20.7456667,35.9353548 C20.7748333,35.9275968 20.80225,35.9108871 20.8314167,35.9001452 C20.8839167,35.8804516 20.9381667,35.8643387 20.9871667,35.8356935 L30.3140833,30.4426452 L39.7588333,34.7221129 C40.14675,34.8975645 40.5994167,34.8104355 40.8975,34.5025 C41.1955833,34.1945645 41.27725,33.7302742 41.10225,33.3358065" id="Fill-1" sketch:type="MSShapeGroup"></path>
            <path d="M20.4790833,27.0923548 C20.8395833,27.0923548 21.17325,26.8984032 21.357,26.5815161 C22.14975,25.2155 29.1025,13.1099355 29.1025,8.65740323 C29.1025,3.79309677 25.2344167,-0.164112903 20.4790833,-0.164112903 C15.7249167,-0.164112903 11.8568333,3.79309677 11.8568333,8.65740323 C11.8568333,13.1099355 18.809,25.2155 19.60175,26.5815161 C19.7855,26.8984032 20.1191667,27.0923548 20.4790833,27.0923548 L20.4790833,27.0923548 Z M20.4790833,1.92459677 C24.108,1.92459677 27.0608333,4.94487097 27.0608333,8.65740323 C27.0608333,11.5481774 22.8940833,19.6314839 20.4790833,23.9682419 C18.0646667,19.6314839 13.8985,11.549371 13.8985,8.65740323 C13.8985,4.94487097 16.85075,1.92459677 20.4790833,1.92459677 L20.4790833,1.92459677 Z" id="Fill-2" sketch:type="MSShapeGroup"></path>
            <path d="M25.43275,8.65740323 C25.43275,5.86330645 23.21025,3.59019355 20.4790833,3.59019355 C17.7485,3.59019355 15.5265833,5.86330645 15.5265833,8.65740323 C15.5265833,11.4515 17.7485,13.7246129 20.4790833,13.7246129 C23.21025,13.7246129 25.43275,11.4515 25.43275,8.65740323 L25.43275,8.65740323 Z M17.56825,8.65740323 C17.56825,7.01508065 18.87375,5.67890323 20.4790833,5.67890323 C22.0844167,5.67890323 23.3910833,7.01508065 23.3910833,8.65740323 C23.3910833,10.2997258 22.0844167,11.6359032 20.4790833,11.6359032 C18.87375,11.6359032 17.56825,10.2997258 17.56825,8.65740323 L17.56825,8.65740323 Z" id="Fill-3" sketch:type="MSShapeGroup"></path>
        </g>
    </g>
</svg>