<?xml version="1.0" encoding="UTF-8" standalone="no"?>
<svg width="36px" height="37px" viewBox="0 0 36 37" version="1.1" xmlns="http://www.w3.org/2000/svg" xmlns:xlink="http://www.w3.org/1999/xlink" xmlns:sketch="http://www.bohemiancoding.com/sketch/ns">
    <!-- Generator: Sketch 3.0.4 (8053) - http://www.bohemiancoding.com/sketch -->
    <title>b-2</title>
    <desc>Created with Sketch.</desc>
    <defs></defs>
    <g id="Page-1" stroke="none" stroke-width="1" fill="none" fill-rule="evenodd" sketch:type="MSPage">
        <g id="b-2" sketch:type="MSLayerGroup" transform="translate(0.000000, 1.000000)" fill="#63B1FF">
            <path d="M35.5394286,5.0889375 C35.3508571,4.838625 35.0531429,4.69125 34.7365714,4.69125 L30.1068571,4.69125 L29.8668571,6.66 L33.3097143,6.66 C32.2845714,9.1479375 29.4902857,14.58225 23.9531429,17.00775 C28.192,11.9210625 28.168,2.460375 28.1651429,2.0413125 L28.1565714,1.0569375 L28.1554286,1.0569375 C28.1582857,1.02825 28.1645714,1.000125 28.1645714,0.970875 C28.1645714,0.4275 27.7165714,-0.0135 27.1645714,-0.0135 L8.74285714,-0.0135 C8.23885714,-0.0135 7.82628571,0.3549375 7.75714286,0.8319375 L7.72342857,0.831375 L7.71485714,1.81575 C7.712,2.24325 7.688,11.8963125 11.9754286,17.029125 C6.40571429,14.614875 3.59828571,9.15525 2.56971429,6.66 L6.01314286,6.66 L5.77314286,4.69125 L1.14285714,4.69125 C0.826857143,4.69125 0.529142857,4.838625 0.340571429,5.088375 C0.152,5.338125 0.0942857143,5.6615625 0.185714286,5.9596875 C0.225714286,6.089625 3.97428571,17.8858125 14.6931429,19.8905625 C14.6628571,20.991375 14.34,23.7459375 12.1508571,26.436375 L9.63942857,26.436375 C8.97828571,26.436375 8.43942857,27.1051875 8.43942857,27.925875 L8.43942857,33.7005 C8.43942857,34.5211875 8.97828571,35.19 9.63942857,35.19 L26.2405714,35.19 C26.9017143,35.19 27.4411429,34.5211875 27.4411429,33.7005 L27.4411429,27.925875 C27.4411429,27.1051875 26.9017143,26.436375 26.2405714,26.436375 L23.7234286,26.436375 C21.524,23.745375 21.2074286,21.0020625 21.1828571,19.891125 C31.904,17.8875 35.6537143,6.0901875 35.6937143,5.96025 C35.7857143,5.6615625 35.728,5.3386875 35.5394286,5.0889375 L35.5394286,5.0889375 Z M21.8851429,16.3366875 C20.7594286,17.4526875 19.464,18.0624375 17.9411429,18.1935 C16.436,18.063 15.1531429,17.456625 14.0354286,16.3490625 C9.94857143,12.2956875 9.72685714,3.1190625 9.71542857,1.95525 L26.164,1.95525 L26.1651429,2.0565 C26.1657143,2.156625 26.1897143,12.0673125 21.8851429,16.3366875 L21.8851429,16.3366875 Z M10.4394286,28.405125 L25.4411429,28.405125 L25.4411429,33.22125 L10.4394286,33.22125 L10.4394286,28.405125 Z M14.6314286,26.436375 C16.2594286,23.9101875 16.6234286,21.48975 16.6851429,20.1898125 L19.1948571,20.1898125 C19.2565714,21.48975 19.6205714,23.9101875 21.2485714,26.436375 L14.6314286,26.436375 L14.6314286,26.436375 Z" id="Fill-1" sketch:type="MSShapeGroup"></path>
            <path d="M14.1777143,31.7671875 L21.7017143,31.7671875 C22.2542857,31.7671875 22.7017143,31.3261875 22.7017143,30.7828125 C22.7017143,30.2394375 22.2542857,29.7984375 21.7017143,29.7984375 L14.1777143,29.7984375 C13.6257143,29.7984375 13.1777143,30.2394375 13.1777143,30.7828125 C13.1777143,31.3261875 13.6257143,31.7671875 14.1777143,31.7671875" id="Fill-2" sketch:type="MSShapeGroup"></path>
        </g>
    </g>
</svg>