<svg width="61" height="61" viewBox="0 0 61 61" xmlns="http://www.w3.org/2000/svg"><path d="M30.44 0C13.656 0 0 13.656 0 30.442c0 16.785 13.655 30.442 30.44 30.442 16.786 0 30.442-13.657 30.442-30.442C60.882 13.656 47.226 0 30.442 0zm0 58.884C14.76 58.884 2 46.124 2 30.442S14.758 2 30.44 2c15.684 0 28.442 12.76 28.442 28.442 0 15.683-12.758 28.442-28.44 28.442zm1.123-28.974L19.653 18l-1.414 1.414 11.91 11.91L18 43.474l1.414 1.414 12.15-12.15L43.71 44.89l1.414-1.415-12.148-12.148 11.91-11.91L43.474 18l-11.91 11.91z" id="Imported-Layers" fill="#0045D2" fill-rule="evenodd"/></svg>