<?xml version="1.0" encoding="UTF-8" standalone="no"?>
<svg width="31px" height="41px" viewBox="0 0 31 41" version="1.1" xmlns="http://www.w3.org/2000/svg" xmlns:xlink="http://www.w3.org/1999/xlink" xmlns:sketch="http://www.bohemiancoding.com/sketch/ns">
    <!-- Generator: Sketch 3.0.4 (8053) - http://www.bohemiancoding.com/sketch -->
    <title>f-1</title>
    <desc>Created with Sketch.</desc>
    <defs></defs>
    <g id="Page-1" stroke="none" stroke-width="1" fill="none" fill-rule="evenodd" sketch:type="MSPage">
        <g id="f-1" sketch:type="MSLayerGroup" fill="#0070D5">
            <path d="M10.3457755,23.1142857 C9.49422449,23.1142857 8.804,23.8069841 8.804,24.6628571 C8.804,25.5161905 9.49422449,26.2088889 10.3457755,26.2088889 C11.1973265,26.2088889 11.887551,25.5161905 11.887551,24.6628571 C11.887551,23.8069841 11.1973265,23.1142857 10.3457755,23.1142857" id="Fill-1" sketch:type="MSShapeGroup"></path>
            <path d="M20.6694082,23.1142857 C19.8178571,23.1142857 19.127,23.8069841 19.127,24.6628571 C19.127,25.5161905 19.8178571,26.2088889 20.6694082,26.2088889 C21.5209592,26.2088889 22.2111837,25.5161905 22.2111837,24.6628571 C22.2111837,23.8069841 21.5209592,23.1142857 20.6694082,23.1142857" id="Fill-2" sketch:type="MSShapeGroup"></path>
            <path d="M17.2726939,32.0546032 C16.134551,32.527619 14.8806327,32.527619 13.7424898,32.0546032 C13.1737347,31.8190476 12.5290612,32.0895238 12.2956122,32.655873 C12.0615306,33.2228571 12.3297755,33.8730159 12.8947347,34.1073016 C13.7374286,34.4577778 14.6218776,34.632381 15.5075918,34.632381 C16.3926735,34.632381 17.2777551,34.4577778 18.120449,34.1073016 C18.6847755,33.8730159 18.9530204,33.2228571 18.7195714,32.655873 C18.4861224,32.0895238 17.841449,31.8190476 17.2726939,32.0546032" id="Fill-3" sketch:type="MSShapeGroup"></path>
            <path d="M29.5493265,19.3619048 C29.5088367,19.312381 29.4620204,19.2704762 29.4152041,19.2298413 C29.4582245,18.4653968 29.3747143,17.5511111 29.1159592,16.4520635 L29.0710408,16.2552381 C29.0476327,16.144127 29.0046122,16.0444444 28.952102,15.9498413 C29.0900204,11.824127 28.567449,8.85650794 28.5377143,8.69396825 C27.6943878,4.71174603 23.9712245,2.37714286 20.8674286,1.89269841 C19.0422245,1.60698413 17.9774694,1.36 17.2606735,1.13142857 C17.0601224,0.555555556 16.2920816,0.123809524 15.3684082,0.123809524 C14.4706735,0.123809524 13.7222449,0.533333333 13.4976531,1.08634921 C12.5587959,1.36063492 11.2447755,1.69142857 9.82193878,1.89015873 C6.72193878,2.32063492 2.99308163,4.63365079 2.12697959,8.72761905 C2.10293878,8.85904762 1.57530612,11.8603175 1.72271429,16.0247619 C1.68918367,16.0977778 1.66261224,16.1739683 1.64553061,16.2552381 L1.59997959,16.4520635 C1.30453061,17.7098413 1.24,18.7238095 1.32983673,19.5492063 C0.981877551,20.0152381 -0.16955102,21.7473016 0.129693878,23.8755556 C0.341632653,25.3860317 1.2184898,26.7180952 2.72104082,27.8450794 C3.22020408,30.1777778 5.92416327,40.2285714 15.4582449,40.2285714 C15.4791224,40.2285714 15.4987347,40.224127 15.5189796,40.2228571 C15.5404898,40.224127 15.560102,40.2285714 15.5809796,40.2285714 C25.1144286,40.2285714 27.8190204,30.1777778 28.3181837,27.8450794 C29.8068163,26.7269841 30.675449,25.4012698 30.8861224,23.8933333 C31.2321837,21.4139683 29.6182857,19.4444444 29.5493265,19.3619048 L29.5493265,19.3619048 Z M26.1912041,20.6634921 C26.0551837,20.704127 26.0494898,20.68 25.9691429,20.7460317 C25.7243061,20.7949206 24.506449,20.8965079 22.026449,18.9339683 C21.9359796,18.8584127 19.747,17.0838095 15.5196122,17.0838095 C15.4639388,17.0838095 15.4114286,17.0920635 15.3582857,17.1003175 C15.3045102,17.0920635 15.252,17.0838095 15.1969592,17.0838095 C10.9695714,17.0838095 8.78059184,18.8584127 8.70846939,18.9180952 C6.2107551,20.8952381 4.99416327,20.7955556 4.74742857,20.7460317 C4.66708163,20.68 4.66138776,20.704127 4.52473469,20.6634921 C3.92940816,20.4857143 3.32332653,20.024127 3.53210204,18.2050794 C4.07491837,17.7028571 13.9873265,8.87492063 27.1610612,18.0139683 C27.4356327,19.9942857 26.8080408,20.48 26.1912041,20.6634921 L26.1912041,20.6634921 Z M4.2995102,9.15555556 C4.9087551,6.27746032 7.69179592,4.42920635 10.1268776,4.09079365 C11.734449,3.86666667 13.1971429,3.49333333 14.2226735,3.18984127 C14.6889388,3.08825397 15.4626735,2.98920635 16.3085306,3.15873016 C17.1347755,3.44507937 18.3570612,3.74920635 20.5270612,4.08825397 C22.9039388,4.45904762 25.746449,6.20380952 26.3651837,9.12126984 C26.3702449,9.14920635 26.8023469,11.6273016 26.7561633,15.1136508 C16.1687143,8.73587302 7.59626531,12.7009524 3.9154898,15.1422222 C3.8655102,11.6431746 4.30014286,9.15555556 4.2995102,9.15555556 L4.2995102,9.15555556 Z M28.691449,23.6019048 C28.5516327,24.5593651 27.9031633,25.4431746 26.769449,26.231746 C26.488551,26.3936508 26.2785102,26.6736508 26.224102,27.0190476 C26.1545102,27.4679365 24.4058571,38.0063492 15.5809796,38.0063492 C15.560102,38.0063492 15.5404898,38.0114286 15.5189796,38.0126984 C15.4987347,38.0114286 15.4791224,38.0063492 15.4582449,38.0063492 C6.63273469,38.0063492 4.88471429,27.4679365 4.8144898,27.0209524 C4.76197959,26.6755556 4.55193878,26.3961905 4.27293878,26.2330159 C3.12277551,25.4349206 2.46608163,24.5434921 2.325,23.5822222 C2.24212245,23.0165079 2.34397959,22.4831746 2.49897959,22.0374603 C2.89438776,22.3866667 3.34673469,22.6184127 3.79844898,22.7644444 C4.0192449,22.864127 4.40136735,22.9866667 4.95683673,22.9866667 C6.01716327,22.9866667 7.70697959,22.5409524 10.0990408,20.647619 C10.1148571,20.6336508 11.8116327,19.3060317 15.1969592,19.3060317 C15.252,19.3060317 15.3045102,19.2977778 15.3582857,19.2895238 C15.4114286,19.2977778 15.4639388,19.3060317 15.5196122,19.3060317 C18.8948163,19.3060317 20.6074082,20.64 20.6358776,20.6628571 C23.0127551,22.5447619 24.6962449,22.9879365 25.7553061,22.9879365 C26.3126735,22.9879365 26.6966939,22.8647619 26.9181224,22.7644444 C27.4533469,22.5911111 27.9904694,22.2990476 28.4314286,21.8285714 C28.6319796,22.3219048 28.7876122,22.9396825 28.691449,23.6019048 L28.691449,23.6019048 Z" id="Fill-4" sketch:type="MSShapeGroup"></path>
        </g>
    </g>
</svg>