<?xml version="1.0" encoding="UTF-8" standalone="no"?>
<svg width="42px" height="40px" viewBox="0 0 42 40" version="1.1" xmlns="http://www.w3.org/2000/svg" xmlns:xlink="http://www.w3.org/1999/xlink" xmlns:sketch="http://www.bohemiancoding.com/sketch/ns">
    <!-- Generator: Sketch 3.0.4 (8053) - http://www.bohemiancoding.com/sketch -->
    <title>f-2</title>
    <desc>Created with Sketch.</desc>
    <defs></defs>
    <g id="Page-1" stroke="none" stroke-width="1" fill="none" fill-rule="evenodd" sketch:type="MSPage">
        <g id="f-2" sketch:type="MSLayerGroup" transform="translate(0.000000, 1.000000)" fill="#0070D5">
            <path d="M8.47495385,25.02695 L33.5405538,25.02695 L33.5405538,-0.1872 L8.47495385,-0.1872 L8.47495385,25.02695 Z M19.9293231,2.0878 L22.0874769,2.0878 L22.0874769,6.4805 L19.9293231,6.4805 L19.9293231,2.0878 Z M31.2790154,22.75195 L10.7364923,22.75195 L10.7364923,2.0878 L17.6677846,2.0878 L17.6677846,8.7555 L24.3490154,8.7555 L24.3490154,2.0878 L31.2790154,2.0878 L31.2790154,22.75195 L31.2790154,22.75195 Z" id="Fill-1" sketch:type="MSShapeGroup"></path>
            <path d="M5.9724,31.14215 C5.1072,31.14215 4.40612308,31.84805 4.40612308,32.7171 C4.40612308,33.58615 5.1072,34.2927 5.9724,34.2927 C6.83695385,34.2927 7.53738462,33.58615 7.53738462,32.7171 C7.53738462,31.84805 6.83695385,31.14215 5.9724,31.14215" id="Fill-2" sketch:type="MSShapeGroup"></path>
            <path d="M21.0077538,31.14215 C20.1432,31.14215 19.4421231,31.84805 19.4421231,32.7171 C19.4421231,33.58615 20.1432,34.2927 21.0077538,34.2927 C21.8742462,34.2927 22.5733846,33.58615 22.5733846,32.7171 C22.5733846,31.84805 21.8742462,31.14215 21.0077538,31.14215" id="Fill-3" sketch:type="MSShapeGroup"></path>
            <path d="M28.5257538,31.14215 C27.6612,31.14215 26.9607692,31.84805 26.9607692,32.7171 C26.9607692,33.58615 27.6612,34.2927 28.5257538,34.2927 C29.3909538,34.2927 30.0920308,33.58615 30.0920308,32.7171 C30.0920308,31.84805 29.3909538,31.14215 28.5257538,31.14215" id="Fill-4" sketch:type="MSShapeGroup"></path>
            <path d="M13.4904,31.14215 C12.6252,31.14215 11.9241231,31.84805 11.9241231,32.7171 C11.9241231,33.58615 12.6252,34.2927 13.4904,34.2927 C14.3556,34.2927 15.0560308,33.58615 15.0560308,32.7171 C15.0560308,31.84805 14.3556,31.14215 13.4904,31.14215" id="Fill-5" sketch:type="MSShapeGroup"></path>
            <path d="M36.0437538,31.14215 C35.1792,31.14215 34.4787692,31.84805 34.4787692,32.7171 C34.4787692,33.58615 35.1792,34.2927 36.0437538,34.2927 C36.9089538,34.2927 37.6100308,33.58615 37.6100308,32.7171 C37.6100308,31.84805 36.9089538,31.14215 36.0437538,31.14215" id="Fill-6" sketch:type="MSShapeGroup"></path>
            <path d="M36.7312615,38.22975 L5.28553846,38.22975 C2.52387692,38.22975 0.277846154,35.97035 0.277846154,33.19225 L0.277846154,32.24195 C0.277846154,29.4645 2.52387692,27.2051 5.28553846,27.2051 L36.7312615,27.2051 C39.4922769,27.2051 41.7389538,29.4645 41.7389538,32.24195 L41.7389538,33.19225 C41.7389538,35.97035 39.4922769,38.22975 36.7312615,38.22975 L36.7312615,38.22975 Z M5.28553846,29.47945 C3.77095385,29.47945 2.53938462,30.71965 2.53938462,32.24195 L2.53938462,33.19225 C2.53938462,34.7152 3.77095385,35.95475 5.28553846,35.95475 L36.7312615,35.95475 C38.2458462,35.95475 39.4774154,34.7152 39.4774154,33.19225 L39.4774154,32.24195 C39.4774154,30.71965 38.2458462,29.47945 36.7312615,29.47945 L5.28553846,29.47945 L5.28553846,29.47945 Z" id="Fill-7" sketch:type="MSShapeGroup"></path>
        </g>
    </g>
</svg>