<?xml version="1.0" encoding="UTF-8" standalone="no"?>
<svg width="36px" height="36px" viewBox="0 0 36 36" version="1.1" xmlns="http://www.w3.org/2000/svg" xmlns:xlink="http://www.w3.org/1999/xlink" xmlns:sketch="http://www.bohemiancoding.com/sketch/ns">
    <!-- Generator: Sketch 3.0.4 (8053) - http://www.bohemiancoding.com/sketch -->
    <title>f-3</title>
    <desc>Created with Sketch.</desc>
    <defs></defs>
    <g id="Page-1" stroke="none" stroke-width="1" fill="none" fill-rule="evenodd" sketch:type="MSPage">
        <path d="M17.7211525,0 C7.93464407,0 0,8.0179 0,17.9092333 C0,27.7987167 7.93464407,35.8172333 17.7211525,35.8172333 C27.5082712,35.8172333 35.4410847,27.7987167 35.4410847,17.9092333 C35.4410847,8.0179 27.5082712,0 17.7211525,0 L17.7211525,0 Z M24.0174915,11.0198333 C24.6551186,12.9537 25.0041356,14.8955833 25.0706441,16.8411667 L18.7999322,16.8411667 L18.7999322,11.77525 C20.664,11.6969333 22.4023729,11.4009333 24.0016271,10.9766667 C24.0071186,10.9914667 24.0126102,11.0050333 24.0174915,11.0198333 L24.0174915,11.0198333 Z M18.7999322,9.68536667 L18.7999322,2.25946667 C19.7035932,3.21221667 21.7452203,5.5907 23.2566102,9.03971667 C21.880678,9.38566667 20.3918644,9.62246667 18.7999322,9.68536667 L18.7999322,9.68536667 Z M16.664339,9.66131667 C15.2432542,9.57745 13.7526102,9.34866667 12.2021695,8.9392 C13.7117288,5.5389 15.7448136,3.20235 16.664339,2.25021667 L16.664339,9.66131667 L16.664339,9.66131667 Z M16.664339,11.7666167 L16.664339,16.8411667 L10.3759322,16.8411667 C10.436339,14.6772833 10.8414915,12.6990167 11.4272542,10.9378167 C13.2492203,11.4293 14.9979661,11.68645 16.664339,11.7666167 L16.664339,11.7666167 Z M16.664339,33.3629 C14.8698305,31.1046667 13.5280678,28.9204333 12.5554576,26.8256167 C13.9795932,26.4728833 15.3512542,26.2730833 16.664339,26.1953833 L16.664339,33.3629 L16.664339,33.3629 Z M16.664339,24.0937833 C15.0919322,24.1690167 13.4444746,24.4058167 11.7335593,24.84365 C10.9824407,22.7926167 10.576678,20.8390167 10.4314576,18.9995 L16.664339,18.9995 L16.664339,24.0937833 L16.664339,24.0937833 Z M8.30257627,16.8411667 L2.17586441,16.8411667 C2.38454237,13.7091167 3.49932203,10.8249667 5.26271186,8.45696667 C6.69966102,9.22841667 8.10549153,9.84323333 9.4759322,10.3273167 C8.82915254,12.2759833 8.37823729,14.4602167 8.30257627,16.8411667 L8.30257627,16.8411667 Z M8.33918644,18.9995 C8.47159322,21.0351167 8.89138983,23.19345 9.69681356,25.4535333 C8.26413559,25.9444 6.79179661,26.5832667 5.28528814,27.38925 C3.51335593,25.0224833 2.39064407,22.13525 2.17708475,18.9995 L8.33918644,18.9995 L8.33918644,18.9995 Z M10.4918644,27.4379667 C11.3204746,29.2892 12.4187797,31.2008667 13.8270508,33.16125 C11.1002034,32.4496167 8.66013559,31.0090833 6.72345763,29.05795 C8.01152542,28.39195 9.26847458,27.8566833 10.4918644,27.4379667 L10.4918644,27.4379667 Z M18.7999322,26.1750333 C20.2747119,26.233 21.6628475,26.43835 22.9533559,26.7436 C21.9355932,28.95065 20.5450169,31.154 18.7999322,33.34995 L18.7999322,26.1750333 L18.7999322,26.1750333 Z M18.7999322,24.0857667 L18.7999322,18.9995 L25.0169492,18.9995 C24.8729492,20.9358333 24.4482712,22.8746333 23.7416949,24.8128167 C22.2150508,24.42555 20.5621017,24.1597667 18.7999322,24.0857667 L18.7999322,24.0857667 Z M27.1256949,18.9995 L33.264,18.9995 C33.0510508,22.1334 31.9301695,25.0181667 30.160678,27.3849333 C28.9031186,26.6831667 27.4332203,25.99065 25.7790508,25.42085 C26.5771525,23.1731 26.9938983,21.02525 27.1256949,18.9995 L27.1256949,18.9995 Z M27.1616949,16.8411667 C27.0866441,14.4737833 26.6406102,12.30065 25.9999322,10.3606167 C27.5741695,9.80191667 28.9751186,9.1353 30.1820339,8.46066667 C31.9429831,10.8274333 33.0571525,13.71035 33.2658305,16.8411667 L27.1616949,16.8411667 L27.1616949,16.8411667 Z M28.8061017,6.85116667 C27.7712542,7.41665 26.5887458,7.96671667 25.272,8.43106667 C24.2725424,6.07725 23.0430508,4.1588 21.9984407,2.76636667 C24.6117966,3.52116667 26.9463051,4.9469 28.8061017,6.85116667 L28.8061017,6.85116667 Z M13.4731525,2.75835 C12.4413559,4.13105 11.2289492,6.01805 10.2355932,8.33116667 C9.08298305,7.92293333 7.90230508,7.41726667 6.69355932,6.79011667 C8.55030508,4.90928333 10.8750508,3.50328333 13.4731525,2.75835 L13.4731525,2.75835 Z M21.6439322,33.1532333 C23.0747797,31.1601667 24.184678,29.21705 25.0169492,27.33745 C26.4252203,27.8159833 27.6864407,28.3950333 28.7816949,28.9925833 C26.8419661,30.9696167 24.3890847,32.4311167 21.6439322,33.1532333 L21.6439322,33.1532333 Z" id="f-3" fill="#0070D5" sketch:type="MSShapeGroup"></path>
    </g>
</svg>