<?xml version="1.0" encoding="UTF-8" standalone="no"?>
<svg width="41px" height="41px" viewBox="0 0 41 41" version="1.1" xmlns="http://www.w3.org/2000/svg" xmlns:xlink="http://www.w3.org/1999/xlink" xmlns:sketch="http://www.bohemiancoding.com/sketch/ns">
    <!-- Generator: Sketch 3.0.4 (8053) - http://www.bohemiancoding.com/sketch -->
    <title>f-5</title>
    <desc>Created with Sketch.</desc>
    <defs></defs>
    <g id="Page-1" stroke="none" stroke-width="1" fill="none" fill-rule="evenodd" sketch:type="MSPage">
        <g id="f-5" sketch:type="MSLayerGroup" transform="translate(1.000000, 0.000000)" fill="#0070D5">
            <path d="M37.9390164,19.6237903 C37.3055738,19.6237903 36.7914754,20.1422419 36.7914754,20.7810484 C36.7914754,30.4444839 28.9921311,38.3065645 19.4052459,38.3065645 C9.82163934,38.3065645 2.02491803,30.4444839 2.02491803,20.7810484 C2.02491803,11.1169516 9.82163934,3.25487097 19.4052459,3.25487097 C22.5822951,3.25487097 25.6655738,4.12909677 28.3481967,5.75190323 L29.8891803,3.00887097 L31.4977049,9.71104839 L23.3783607,12.2980161 C22.7737705,12.4884677 22.4367213,13.1378548 22.6262295,13.7482258 C22.7796721,14.242871 23.2327869,14.559629 23.7206557,14.559629 C23.8347541,14.559629 23.9501639,14.5424355 24.0642623,14.5067258 L32.2839344,11.8866935 C33.4032787,11.5712581 34.0609836,10.3935 33.7593443,9.29906452 L31.8872131,1.4965 C31.6904918,0.769080645 30.9783607,0.194419355 30.1672131,0.101177419 C29.4236066,0.00727419355 28.7462295,0.335274194 28.3986885,0.958209677 L27.4413115,2.67822581 C24.9344262,1.54675806 22.2032787,0.940354839 19.4052459,0.940354839 C8.55606557,0.940354839 -0.270163934,9.84066129 -0.270163934,20.7810484 C-0.270163934,31.7207742 8.55606557,40.6210806 19.4052459,40.6210806 C30.2577049,40.6210806 39.0865574,31.7207742 39.0865574,20.7810484 C39.0865574,20.1422419 38.5731148,19.6237903 37.9390164,19.6237903" id="Fill-1" sketch:type="MSShapeGroup"></path>
            <path d="M19.4065574,9.31493548 C20.8629508,9.31493548 22.2872131,9.59664516 23.6177049,10.1309677 L26.7022951,9.13308065 C24.52,7.74106452 22.0052459,7.00041935 19.4065574,7.00041935 C11.8708197,7.00041935 5.74098361,13.1821613 5.74098361,20.7810484 C5.74098361,28.3792742 11.8708197,34.5610161 19.4065574,34.5610161 C22.4747541,34.5610161 25.3737705,33.5591613 27.7901639,31.6658871 C28.2904918,31.2730806 28.3803279,30.5463226 27.9921311,30.0417581 C27.6032787,29.5371935 26.8819672,29.4452742 26.3809836,29.8380806 C24.372459,31.4132742 21.96,32.2465 19.4065574,32.2465 C13.1370492,32.2465 8.03606557,27.1029839 8.03606557,20.7810484 C8.03606557,14.4584516 13.1370492,9.31493548 19.4065574,9.31493548" id="Fill-2" sketch:type="MSShapeGroup"></path>
        </g>
    </g>
</svg>