<?xml version="1.0" encoding="UTF-8" standalone="no"?>
<svg width="43px" height="28px" viewBox="0 0 43 28" version="1.1" xmlns="http://www.w3.org/2000/svg" xmlns:xlink="http://www.w3.org/1999/xlink" xmlns:sketch="http://www.bohemiancoding.com/sketch/ns">
    <!-- Generator: Sketch 3.0.4 (8053) - http://www.bohemiancoding.com/sketch -->
    <title>f-6</title>
    <desc>Created with Sketch.</desc>
    <defs></defs>
    <g id="Page-1" stroke="none" stroke-width="1" fill="none" fill-rule="evenodd" sketch:type="MSPage">
        <g id="f-6" sketch:type="MSLayerGroup" transform="translate(1.000000, 0.000000)" fill="#0070D5">
            <path d="M2.29410811,15.73775 C2.29410811,16.46225 1.72483784,17.05025 1.01991892,17.05025 C0.315,17.05025 -0.257108108,16.46225 -0.257108108,15.73775 C-0.257108108,15.01325 0.315,14.42525 1.01991892,14.42525 C1.72483784,14.42525 2.29410811,15.01325 2.29410811,15.73775" id="Fill-1" sketch:type="MSShapeGroup"></path>
            <path d="M24.4581892,23.8851667 C23.8900541,24.1179167 23.4604054,24.185 23.0035135,23.632 L20.2967838,18.7220833 C20.0260541,18.2315 19.421027,18.0588333 18.9431351,18.3370833 C18.4652432,18.6153333 18.2978108,19.2383333 18.5685405,19.7283333 L20.520973,23.2703333 L20.5544595,23.3304167 L20.5555946,23.3298333 L21.4756216,24.9316667 C21.5545135,25.0285 21.6328378,25.123 21.714,25.2058333 C22.3814595,25.8900833 23.0982973,26.1035833 23.7351081,26.1035833 C24.4621622,26.1035833 25.0836486,25.8335 25.4065946,25.6929167 C25.4627838,25.6684167 25.5081892,25.6491667 25.5518919,25.63225 L24.4581892,23.8851667" id="Fill-2" sketch:type="MSShapeGroup"></path>
            <path d="M19.5771081,25.0705 C19.5169459,25.1049167 19.0021622,25.3516667 18.4374324,24.6411667 L18.4272162,24.6213333 L16.7733243,21.6620833 C16.5003243,21.17325 15.893027,21.0035 15.4174054,21.28525 C14.9412162,21.5658333 14.7771892,22.19 15.0507568,22.6788333 L16.6161081,25.4811667 L16.6575405,25.5540833 L16.6501622,25.55875 L16.7097568,25.66375 L16.7528919,25.73725 C17.5270541,26.83625 18.4584324,27.181 19.2445135,27.181 C19.7706486,27.181 20.2315135,27.0305 20.5351622,26.859 L19.7076486,25.31375 L19.5771081,25.0705" id="Fill-3" sketch:type="MSShapeGroup"></path>
            <path d="M39.8040811,16.16825 C39.0991622,16.16825 38.5270541,16.75625 38.5270541,17.48075 C38.5270541,18.2058333 39.0991622,18.79325 39.8040811,18.79325 C40.509,18.79325 41.0811081,18.2058333 41.0811081,17.48075 C41.0811081,16.75625 40.509,16.16825 39.8040811,16.16825" id="Fill-4" sketch:type="MSShapeGroup"></path>
            <path d="M14.7601622,25.7121667 C14.262973,25.7080833 13.6216216,25.515 13.1522432,24.69775 L8.77005405,16.9901667 L6.58491892,16.9901667 L6.58491892,4.51208333 L12.9564324,4.51208333 L14.5314324,2.47041667 L6.58491892,2.47041667 L6.58491892,0.0834166667 L-0.196945946,0.0834166667 L-0.196945946,2.12508333 L4.59843243,2.12508333 L4.59843243,19.6536667 L-0.240081081,19.6536667 L-0.240081081,21.6953333 L6.58491892,21.6953333 L6.58491892,19.0423333 L7.63605405,19.0423333 L11.4393243,25.732 C12.3400541,27.3011667 13.6840541,27.7485833 14.7913784,27.7485833 C15.1852703,27.748 15.5456757,27.69025 15.8487568,27.6074167 L14.7601622,25.7121667" id="Fill-5" sketch:type="MSShapeGroup"></path>
            <path d="M36.2255676,3.81033333 L41.0334324,3.81033333 L41.0334324,1.76866667 L34.2390811,1.76866667 L34.2390811,3.81091667 L28.0230811,1.01966667 L28.0208108,1.02433333 L28.0208108,0.99225 L20.2979189,0.9975 C20.0777027,1.001 18.0929189,1.10016667 16.1756757,3.577 L10.8257838,10.7444167 L11.0936757,11.3114167 C11.1947027,11.5255 12.1362973,13.4178333 14.0172162,13.8775 C14.2856757,13.9428333 14.5558378,13.9755 14.8271351,13.9755 C15.7369459,13.9755 16.6632162,13.6091667 17.5906216,12.8805833 L21.2412162,9.08425 C21.819,9.13616667 22.8207568,9.22483333 23.6221622,9.29366667 L29.8120541,21.4509167 C29.8097838,21.455 29.8080811,21.4596667 29.8058108,21.4631667 C29.5032973,22.0453333 29.1587838,22.5423333 28.857973,22.7768333 C28.7796486,22.8375 28.7052973,22.8789167 28.6354865,22.8993333 C28.6139189,22.9063333 28.5895135,22.92325 28.5690811,22.9255833 C28.4765676,22.93375 28.266,22.8421667 27.9805135,22.5230833 L23.9729189,16.0801667 C23.6777838,15.6053333 23.0631081,15.4659167 22.6011081,15.7698333 C22.1391081,16.0731667 22.004027,16.7049167 22.2991622,17.17975 L24.4530811,20.6418333 L24.5983784,20.8763333 L24.5995135,20.87575 L26.4055135,23.7626667 L26.421973,23.7889167 C26.4469459,23.8180833 26.4719189,23.8455 26.4963243,23.8735 C26.505973,23.8845833 26.5156216,23.89625 26.5252703,23.9073333 C26.876027,24.3005 27.2421081,24.5845833 27.6229459,24.75725 C27.9197838,24.8925833 28.2251351,24.969 28.5384324,24.969 C28.5707838,24.969 28.6037027,24.9655 28.6354865,24.96375 C28.6791892,24.962 28.7228919,24.9614167 28.7671622,24.9573333 C29.1707027,24.9153333 29.5367838,24.7619167 29.8693784,24.5373333 C30.9182432,23.8309167 31.6157838,22.4204167 31.9727838,21.5331667 L34.2390811,21.5255833 L34.2390811,23.3805833 L41.0765676,23.3805833 L41.0765676,21.3389167 L36.2255676,21.3389167 L36.2255676,3.81033333 L36.2255676,3.81033333 Z M31.0584324,19.4944167 L24.8901081,7.37975 L24.8918108,7.35 C24.3531892,7.31441667 20.9818378,7.01166667 20.9477838,7.00875 L20.4818108,6.96675 L16.3311892,11.29975 C15.6478378,11.8224167 15.0291892,12.0230833 14.4843243,11.8924167 C13.9405946,11.7629167 13.4888108,11.312 13.1965135,10.9223333 L17.741027,4.83408333 C19.0577838,3.13308333 20.2939459,3.0415 20.3121081,3.03916667 L27.5485946,3.03391667 L34.2390811,6.03866667 L34.2390811,19.4839167 L31.0584324,19.4944167 L31.0584324,19.4944167 Z" id="Fill-6" sketch:type="MSShapeGroup"></path>
        </g>
    </g>
</svg>