<svg width="11" height="17" viewBox="0 0 11 17" xmlns="http://www.w3.org/2000/svg"><path d="M8.75 9.254c-.437-.328-1.39-1-1.39-1.452 0-.53.152-.79.95-1.41.814-.64 1.39-1.48 1.39-2.522 0-1.136-.463-2.166-1.337-2.666h1.24l1.05-1.106H5.94c-2.393 0-4.388 1.764-4.388 3.706 0 1.983 1.31 3.564 3.56 3.564.157 0 .31-.01.458-.02-.146.28-.25.593-.25.92 0 .55.303.866.678 1.23-.283 0-.557.008-.855.008-2.74 0-4.66 1.886-4.66 3.695 0 1.784 2.314 2.9 5.054 2.9 3.123 0 5.044-1.774 5.044-3.556 0-1.43-.307-2.147-1.83-3.29zM6.024 6.648c-1.27-.04-2.48-1.206-2.698-2.875C3.106 2.105 3.96.827 5.23.863c1.27.04 2.358 1.41 2.577 3.078.218 1.67-.512 2.746-1.783 2.71zm-.498 8.662c-1.893 0-3.26-1.2-3.26-2.64 0-1.41 1.603-2.628 3.498-2.606.44.003.853.075 1.226.196 1.03.715 1.858 1.16 2.067 1.976.04.164.06.334.06.508 0 1.44-.927 2.566-3.59 2.566z" id="Fill-3" fill="#fff" fill-rule="evenodd"/></svg>