<?xml version="1.0" encoding="UTF-8" standalone="no"?>
<svg width="32px" height="54px" viewBox="0 0 32 54" version="1.1" xmlns="http://www.w3.org/2000/svg" xmlns:xlink="http://www.w3.org/1999/xlink" xmlns:sketch="http://www.bohemiancoding.com/sketch/ns">
    <!-- Generator: Sketch 3.0.4 (8053) - http://www.bohemiancoding.com/sketch -->
    <title>i-1</title>
    <desc>Created with Sketch.</desc>
    <defs></defs>
    <g id="Page-1" stroke="none" stroke-width="1" fill="none" fill-rule="evenodd" sketch:type="MSPage">
        <g id="i-1" sketch:type="MSLayerGroup" fill="#63B1FF">
            <path d="M15.6880217,53.2072436 C7.43191304,53.2072436 0.189369565,45.3007308 0.189369565,36.2873333 C0.189369565,28.8870385 3.31026087,24.0776282 6.61378261,18.9855513 C9.66526087,14.284859 13.1224348,9.05960256 14.6953478,0.725012821 C14.7856522,0.243935897 15.2034783,0 15.6880217,0 L15.6913913,0 C16.1786304,0 16.5951087,0.249371795 16.6827174,0.732487179 C18.189587,9.03174359 21.5146739,14.0905256 24.730587,19.0331154 C28.0509565,24.1360641 31.1866739,28.9298462 31.1866739,36.3131538 C31.1866739,44.3005256 24.5587391,53.2072436 15.6880217,53.2072436 L15.6880217,53.2072436 Z M15.6765652,5.2205 C13.8212826,11.6029231 10.919413,16.0746282 8.30597826,20.1019487 C5.03615217,25.1417051 2.2111087,29.4945 2.2111087,36.2873333 C2.2111087,43.326141 7.74595652,51.1687821 15.6880217,51.1687821 C23.4016304,51.1687821 29.1649348,43.3118718 29.1649348,36.2873333 C29.1649348,29.5128462 26.326413,25.1505385 23.0397391,20.0992308 C20.4148478,16.0637564 17.4995,11.5832179 15.6765652,5.2205 L15.6765652,5.2205 Z" id="Fill-1" sketch:type="MSShapeGroup"></path>
            <path d="M17.0075435,45.7328846 C16.5324348,45.7328846 16.1085435,45.393141 16.0162174,44.9052692 C15.911087,44.3521667 16.2709565,43.8180897 16.8188478,43.7127692 C20.4923478,43.0033846 22.1366957,39.2594103 22.1366957,35.8640128 C22.1366957,35.3013974 22.5888913,34.8447821 23.1475652,34.8447821 C23.7055652,34.8447821 24.1584348,35.3013974 24.1584348,35.8640128 C24.1584348,40.0985769 22.0059565,44.786359 17.1989348,45.7145385 C17.134913,45.7267692 17.0708913,45.7328846 17.0075435,45.7328846" id="Fill-2" sketch:type="MSShapeGroup"></path>
        </g>
    </g>
</svg>