<?xml version="1.0" encoding="UTF-8" standalone="no"?>
<svg width="60px" height="53px" viewBox="0 0 60 53" version="1.1" xmlns="http://www.w3.org/2000/svg" xmlns:xlink="http://www.w3.org/1999/xlink" xmlns:sketch="http://www.bohemiancoding.com/sketch/ns">
    <!-- Generator: Sketch 3.0.4 (8053) - http://www.bohemiancoding.com/sketch -->
    <title>i-2</title>
    <desc>Created with Sketch.</desc>
    <defs></defs>
    <g id="Page-1" stroke="none" stroke-width="1" fill="none" fill-rule="evenodd" sketch:type="MSPage">
        <g id="i-2" sketch:type="MSLayerGroup" fill="#63B1FF">
            <path d="M17.2015729,52.8027907 C16.3368542,52.8027907 15.5520312,52.6031163 14.8698438,52.2074651 C12.2652396,50.7000465 11.497625,46.5432442 12.7101979,40.5037093 C13.857625,34.7883372 16.6263229,27.9303837 20.5055729,21.1932209 C27.6224479,8.83127907 36.5191563,0.197825581 42.14075,0.197825581 C43.0060833,0.197825581 43.7902917,0.398116279 44.4730937,0.793151163 C47.0776979,2.30056977 47.8446979,6.45737209 46.632125,12.4962907 C45.4846979,18.2116628 42.7166146,25.0696163 38.8373646,31.8067791 C35.2518854,38.0342791 31.0321562,43.5764767 26.9550104,47.4121977 C25.9538542,48.3538721 24.9631458,49.1901628 24.0099271,49.8982674 C22.7045521,50.8676744 21.4581771,51.6059767 20.3058333,52.0916047 C19.1872917,52.5636744 18.1431146,52.8027907 17.2015729,52.8027907 L17.2015729,52.8027907 Z M42.14075,2.04666279 C37.3045937,2.04666279 28.6899792,10.675186 22.1016458,22.1176395 C18.3201146,28.6859419 15.6270104,35.3454535 14.5183021,40.8685465 C13.488875,45.992907 13.9535,49.5426744 15.7917188,50.6063721 C16.7056042,51.1351395 18.0103646,51.054407 19.5904583,50.387593 C20.6082083,49.9586628 21.7255208,49.294314 22.9128958,48.4130349 C23.8089583,47.7474535 24.7443542,46.9567674 25.6938854,46.0637791 C29.6419688,42.3488488 33.7430833,36.9576395 37.2406771,30.8823605 C41.0222083,24.3146744 43.7153125,17.6551628 44.8246354,12.1314535 C45.8534479,7.00709302 45.3888229,3.45794186 43.5512187,2.39424419 C43.1523542,2.16375581 42.6778958,2.04666279 42.14075,2.04666279 L42.14075,2.04666279 Z" id="Fill-1" sketch:type="MSShapeGroup"></path>
            <path d="M42.1401354,52.8040233 C36.5191562,52.8040233 27.6224479,44.1693372 20.5049583,31.8067791 C13.2289062,19.170593 9.13209375,4.11551163 14.8698437,0.793151163 C15.5520312,0.398116279 16.3362396,0.197825581 17.2015729,0.197825581 C22.8225521,0.197825581 31.7192604,8.83189535 38.8373646,21.1944535 C46.1128021,33.8306395 50.2096146,48.8857209 44.4724792,52.2080814 C43.7896771,52.6031163 43.0054688,52.8040233 42.1401354,52.8040233 L42.1401354,52.8040233 Z M17.2015729,2.04666279 C16.6644271,2.04666279 16.1899687,2.16375581 15.7917187,2.39424419 C12.2117708,4.4667907 13.9221562,16.6765116 22.1010312,30.8823605 C28.6899792,42.3254302 37.3045937,50.955186 42.1401354,50.955186 C42.6772812,50.955186 43.1517396,50.8374767 43.5506042,50.6069884 C47.1305521,48.5338256 45.4201667,36.3241047 37.2406771,22.1188721 C30.6523437,10.6758023 22.0371146,2.04666279 17.2015729,2.04666279 L17.2015729,2.04666279 Z" id="Fill-2" sketch:type="MSShapeGroup"></path>
            <path d="M29.6708542,37.1141744 C15.1199792,37.1141744 0.06821875,33.1434884 0.06821875,26.5 C0.06821875,23.4839302 3.2745,20.7402558 9.09644792,18.773093 C14.6061875,16.9119302 21.9129687,15.8870581 29.6708542,15.8870581 C44.2223437,15.8870581 59.2734896,19.8571279 59.2734896,26.5 C59.2734896,33.1434884 44.2223437,37.1141744 29.6708542,37.1141744 L29.6708542,37.1141744 Z M29.6708542,17.7358953 C22.1077917,17.7358953 15.0099687,18.7268721 9.68460417,20.5257907 C4.74519792,22.1940581 1.91196875,24.3719884 1.91196875,26.5 C1.91196875,30.6457093 13.3124896,35.2653372 29.6708542,35.2653372 C46.0298333,35.2653372 57.4297396,30.6457093 57.4297396,26.5 C57.4297396,22.354907 46.0298333,17.7358953 29.6708542,17.7358953 L29.6708542,17.7358953 Z" id="Fill-3" sketch:type="MSShapeGroup"></path>
            <path d="M29.6714687,31.3618256 C26.9980312,31.3618256 24.8236354,29.180814 24.8236354,26.5 C24.8236354,23.819186 26.9980312,21.6387907 29.6714687,21.6387907 C32.3442917,21.6387907 34.5193021,23.819186 34.5193021,26.5 C34.5193021,29.180814 32.3442917,31.3618256 29.6714687,31.3618256 L29.6714687,31.3618256 Z M29.6714687,23.4876279 C28.0145521,23.4876279 26.6673854,24.8391279 26.6673854,26.5 C26.6673854,28.1608721 28.0145521,29.5129884 29.6714687,29.5129884 C31.3277708,29.5129884 32.6755521,28.1608721 32.6755521,26.5 C32.6755521,24.8391279 31.3277708,23.4876279 29.6714687,23.4876279 L29.6714687,23.4876279 Z" id="Fill-4" sketch:type="MSShapeGroup"></path>
        </g>
    </g>
</svg>