<?xml version="1.0" encoding="UTF-8" standalone="no"?>
<svg width="38px" height="59px" viewBox="0 0 38 59" version="1.1" xmlns="http://www.w3.org/2000/svg" xmlns:xlink="http://www.w3.org/1999/xlink" xmlns:sketch="http://www.bohemiancoding.com/sketch/ns">
    <!-- Generator: Sketch 3.0.4 (8053) - http://www.bohemiancoding.com/sketch -->
    <title>i-3</title>
    <desc>Created with Sketch.</desc>
    <defs></defs>
    <g id="Page-1" stroke="none" stroke-width="1" fill="none" fill-rule="evenodd" sketch:type="MSPage">
        <g id="i-3" sketch:type="MSLayerGroup" transform="translate(1.000000, 0.000000)" fill="#63B1FF">
            <path d="M5.23381818,58.2737941 C5.09506818,58.2737941 4.95884091,58.2439412 4.82934091,58.1859412 C4.329,57.9599118 4.10195455,57.362 4.32563636,56.8545 L6.37240909,52.1820882 C6.98038636,52.2784706 7.56229545,52.3245294 8.14084091,52.3245294 L8.48729545,52.3245294 L6.14368182,57.6741765 C5.98390909,58.0383824 5.62652273,58.2737941 5.23381818,58.2737941" id="Fill-1" sketch:type="MSShapeGroup"></path>
            <path d="M31.2692045,58.2737941 C30.8756591,58.2737941 30.5191136,58.0383824 30.3593409,57.6741765 L28.0148864,52.3245294 L28.3672273,52.3245294 C28.9440909,52.3245294 29.5243182,52.2784706 30.1306136,52.1829412 L32.1773864,56.8545 C32.4002273,57.362 32.1731818,57.9599118 31.672,58.1859412 C31.5433409,58.2439412 31.4079545,58.2737941 31.2692045,58.2737941" id="Fill-2" sketch:type="MSShapeGroup"></path>
            <path d="M8.63025,42.5310588 C6.57590909,42.5310588 4.90418182,40.8354118 4.90418182,38.7516765 C4.90418182,36.6687941 6.57590909,34.974 8.63025,34.974 C10.6854318,34.974 12.3563182,36.6687941 12.3563182,38.7516765 C12.3563182,40.8354118 10.6854318,42.5310588 8.63025,42.5310588 L8.63025,42.5310588 Z M8.63025,36.5655882 C7.44120455,36.5655882 6.47331818,37.5464706 6.47331818,38.7516765 C6.47331818,39.9585882 7.44120455,40.9394706 8.63025,40.9394706 C9.82013636,40.9394706 10.7871818,39.9585882 10.7871818,38.7516765 C10.7871818,37.5464706 9.82013636,36.5655882 8.63025,36.5655882 L8.63025,36.5655882 Z" id="Fill-3" sketch:type="MSShapeGroup"></path>
            <path d="M27.8727727,42.5310588 C25.8184318,42.5310588 24.1458636,40.8354118 24.1458636,38.7516765 C24.1458636,36.6687941 25.8184318,34.974 27.8727727,34.974 C29.9271136,34.974 31.598,36.6687941 31.598,38.7516765 C31.598,40.8354118 29.9271136,42.5310588 27.8727727,42.5310588 L27.8727727,42.5310588 Z M27.8727727,36.5655882 C26.6828864,36.5655882 25.7158409,37.5464706 25.7158409,38.7516765 C25.7158409,39.9585882 26.6828864,40.9394706 27.8727727,40.9394706 C29.0618182,40.9394706 30.0288636,39.9585882 30.0288636,38.7516765 C30.0288636,37.5464706 29.0618182,36.5655882 27.8727727,36.5655882 L27.8727727,36.5655882 Z" id="Fill-4" sketch:type="MSShapeGroup"></path>
            <path d="M21.9443636,5.27458824 L21.9443636,2.33194118 L14.5645455,2.33108824 L14.5645455,5.27458824 L12.5749545,5.27458824 L12.5749545,2.33279412 L11.7281591,2.33023529 C9.98663636,2.33023529 9.70997727,2.48035294 9.04145455,3.78364706 C8.86906818,4.11970588 8.53018182,4.32782353 8.15765909,4.32782353 C7.99704545,4.32782353 7.84315909,4.28858824 7.69936364,4.21352941 C7.21247727,3.95594118 7.02327273,3.34523529 7.27638636,2.85223529 C8.51588636,0.435 9.81088636,0.313029412 11.8223409,0.313029412 L24.0230909,0.313882353 C26.31625,0.313882353 27.9165,0.488735294 29.2165455,2.82152941 C29.4864773,3.306 29.3174545,3.92267647 28.8398182,4.19647059 C28.6909773,4.28261765 28.5219545,4.32697059 28.35125,4.32697059 C27.9930227,4.32697059 27.6608636,4.13079412 27.4842727,3.81520588 C26.8140682,2.61341176 26.2985909,2.36435294 24.4174773,2.33791176 L23.9339545,2.33023529 L23.9339545,5.27458824 L21.9443636,5.27458824" id="Fill-5" sketch:type="MSShapeGroup"></path>
            <path d="M8.23838636,48.8598824 C3.54863636,48.8598824 -0.266568182,44.9900882 -0.266568182,40.2323824 L-0.266568182,17.3803824 C-0.266568182,12.6235294 3.54863636,8.75458824 8.23838636,8.75458824 L28.2646364,8.75458824 C32.9535455,8.75458824 36.7695909,12.6235294 36.7695909,17.3803824 L36.7695909,40.2323824 C36.7695909,44.9900882 32.9535455,48.8598824 28.2646364,48.8598824 L8.23838636,48.8598824 L8.23838636,48.8598824 Z M1.72302273,40.2323824 C1.72302273,43.877 4.64602273,46.8418235 8.23838636,46.8418235 L28.2646364,46.8418235 C31.857,46.8418235 34.7791591,43.877 34.7791591,40.2323824 L34.7791591,27.8766765 L1.72302273,27.8766765 L1.72302273,40.2323824 L1.72302273,40.2323824 Z M19.2458864,25.8577647 L34.7791591,25.8577647 L34.7791591,17.9254118 L19.2458864,17.9254118 L19.2458864,25.8577647 Z M1.72302273,25.8577647 L17.2562955,25.8577647 L17.2562955,17.9254118 L1.72302273,17.9254118 L1.72302273,25.8577647 Z M8.23838636,10.7726471 C5.44656818,10.7726471 2.96756818,12.5791765 2.06947727,15.2685 L1.85672727,15.9073529 L34.6462955,15.9073529 L34.4327045,15.2685 C33.5354545,12.5791765 31.0564545,10.7726471 28.2646364,10.7726471 L8.23838636,10.7726471 L8.23838636,10.7726471 Z" id="Fill-6" sketch:type="MSShapeGroup"></path>
        </g>
    </g>
</svg>