<?xml version="1.0" encoding="UTF-8" standalone="no"?>
<svg width="53px" height="53px" viewBox="0 0 53 53" version="1.1" xmlns="http://www.w3.org/2000/svg" xmlns:xlink="http://www.w3.org/1999/xlink" xmlns:sketch="http://www.bohemiancoding.com/sketch/ns">
    <!-- Generator: Sketch 3.0.4 (8053) - http://www.bohemiancoding.com/sketch -->
    <title>i-4</title>
    <desc>Created with Sketch.</desc>
    <defs></defs>
    <g id="Page-1" stroke="none" stroke-width="1" fill="none" fill-rule="evenodd" sketch:type="MSPage">
        <g id="i-4" sketch:type="MSLayerGroup" transform="translate(1.000000, 0.000000)" fill="#63B1FF">
            <path d="M25.8708764,34.5510455 C21.5315056,34.5510455 18.000764,30.9801818 18.000764,26.5909091 C18.000764,22.2016364 21.5315056,18.6307727 25.8708764,18.6307727 C30.2108315,18.6307727 33.741573,22.2016364 33.741573,26.5909091 C33.741573,30.9801818 30.2108315,34.5510455 25.8708764,34.5510455 L25.8708764,34.5510455 Z M25.8708764,20.4035 C22.4978876,20.4035 19.753573,23.1795909 19.753573,26.5909091 C19.753573,30.0022273 22.4978876,32.7783182 25.8708764,32.7783182 C29.2444494,32.7783182 31.988764,30.0022273 31.988764,26.5909091 C31.988764,23.1795909 29.2444494,20.4035 25.8708764,20.4035 L25.8708764,20.4035 Z" id="Fill-1" sketch:type="MSShapeGroup"></path>
            <path d="M33.0246742,52.1489091 C32.768764,52.1489091 32.5210337,52.0360455 32.3515955,51.831 L25.8708764,43.9908182 L19.3901573,51.831 C19.166382,52.1016364 18.8053034,52.2127273 18.4711011,52.1128636 C15.8699326,51.3411364 13.4200899,50.1764545 11.1899326,48.6519091 C10.8966292,48.451 10.7511461,48.0911364 10.822427,47.7401364 L12.8574382,37.6515455 L2.4305618,37.4080909 C2.08467416,37.3998182 1.77559551,37.1865 1.64179775,36.8632727 C0.628674157,34.4092273 -0.0105168539,31.8133636 -0.257078652,29.1471818 C-0.290382022,28.7861364 -0.102247191,28.4404545 0.217348315,28.2755909 L9.64337079,23.4094545 L3.04462921,14.6326818 C2.8331236,14.3508182 2.80741573,13.9696818 2.97860674,13.6618182 C4.22835955,11.4110455 5.7971236,9.35645455 7.64107865,7.55477273 C7.89991011,7.30186364 8.28494382,7.23509091 8.61213483,7.38459091 L18.6493034,11.9871818 L21.3866067,1.0335 C21.4730787,0.684863636 21.7599551,0.424272727 22.1111011,0.373454545 C24.6246292,0.00768181818 27.1194607,0.00827272727 29.631236,0.373454545 C29.982382,0.424272727 30.2692584,0.684863636 30.3557303,1.0335 L33.093618,11.9871818 L43.129618,7.38459091 C43.4573933,7.2345 43.8430112,7.30245455 44.1012584,7.55418182 C45.9434607,9.35468182 47.5116404,11.4098636 48.7637303,13.6618182 C48.9349213,13.9702727 48.9092135,14.3514091 48.6977079,14.6332727 L42.0995506,23.4094545 L51.5249888,28.2755909 C51.8445843,28.4404545 52.0333034,28.7861364 51.9994157,29.1471818 C51.7516854,31.8139545 51.1124944,34.4092273 50.0999551,36.8632727 C49.9661573,37.1865 49.6570787,37.3998182 49.311191,37.4080909 L38.8848989,37.6515455 L40.9204944,47.7401364 C40.991191,48.0911364 40.8462921,48.451 40.5524045,48.6519091 C38.3216629,50.1764545 35.8718202,51.3411364 33.2706517,52.1128636 C33.1900225,52.1370909 33.1064719,52.1489091 33.0246742,52.1489091 L33.0246742,52.1489091 Z M12.6582022,47.5067273 C14.447236,48.6678636 16.38,49.5861364 18.4179326,50.2426364 L25.198382,42.0402273 C25.532,41.6378182 26.2103371,41.6378182 26.5433708,42.0402273 L33.3238202,50.2426364 C35.3617528,49.5861364 37.2945169,48.6678636 39.0841348,47.5067273 L36.9579775,36.9672727 C36.9059775,36.7096364 36.9696629,36.4425455 37.1315056,36.2369091 C37.2933483,36.0318636 37.5369888,35.9095455 37.7964045,35.9036364 L48.6947865,35.6489545 C49.445573,33.7025 49.9480449,31.6656364 50.1916854,29.5773636 L40.3683596,24.5067727 C40.1369888,24.3868182 39.9698876,24.1699545 39.9126292,23.9146818 C39.8547865,23.6582273 39.9114607,23.3893636 40.0692135,23.1801818 L46.949573,14.0287727 C45.9317753,12.2938636 44.7088989,10.6907273 43.3043146,9.25127273 L32.8628315,14.04 C32.625618,14.1475455 32.3539326,14.1445909 32.1202247,14.0311364 C31.8859326,13.9170909 31.7147416,13.7037727 31.6510562,13.4496818 L28.8027416,2.05045455 C26.838427,1.81231818 24.9050787,1.81231818 22.9401798,2.05045455 L20.0918652,13.4496818 C20.0281798,13.7037727 19.8564045,13.9170909 19.6226966,14.0311364 C19.3884045,14.1445909 19.1167191,14.1475455 18.8806742,14.04 L8.4374382,9.25127273 C7.03226966,10.6925 5.80939326,12.2950455 4.79276404,14.0281818 L11.6731236,23.1801818 C11.8302921,23.3899545 11.8875506,23.6582273 11.8297079,23.9146818 C11.7718652,24.1699545 11.604764,24.3868182 11.3739775,24.5067727 L1.55065169,29.5773636 C1.79370787,31.6650455 2.29617978,33.7025 3.04755056,35.6489545 L13.9465169,35.9036364 C14.2059326,35.9095455 14.449573,36.0318636 14.6114157,36.2369091 C14.7732584,36.4425455 14.8369438,36.7096364 14.7849438,36.9672727 L12.6582022,47.5067273 L12.6582022,47.5067273 Z" id="Fill-2" sketch:type="MSShapeGroup"></path>
        </g>
    </g>
</svg>