<?xml version="1.0" encoding="UTF-8" standalone="no"?>
<svg width="41px" height="53px" viewBox="0 0 41 53" version="1.1" xmlns="http://www.w3.org/2000/svg" xmlns:xlink="http://www.w3.org/1999/xlink" xmlns:sketch="http://www.bohemiancoding.com/sketch/ns">
    <!-- Generator: Sketch 3.0.4 (8053) - http://www.bohemiancoding.com/sketch -->
    <title>i-5</title>
    <desc>Created with Sketch.</desc>
    <defs></defs>
    <g id="Page-1" stroke="none" stroke-width="1" fill="none" fill-rule="evenodd" sketch:type="MSPage">
        <g id="i-5" sketch:type="MSLayerGroup" fill="#63B1FF">
            <path d="M19.6606604,45.1170294 L19.6606604,21.8827647 L2.2039434,28.1118235 L6.79749057,43.4194706 C6.70466038,43.4140147 6.61337736,43.4116765 6.52286792,43.4116765 C5.99373585,43.4116765 5.4684717,43.4935147 4.95558491,43.6548529 L0.198811321,27.8031765 C0.057245283,27.3308529 0.307886792,26.8320294 0.769716981,26.6675735 L6.76422642,24.5288676 L6.76422642,14.4386029 C6.76422642,13.9304265 7.175,13.5165588 7.67937736,13.5165588 L33.4722453,13.5165588 C33.9766226,13.5165588 34.3873962,13.9304265 34.3873962,14.4386029 L34.3873962,24.5288676 L40.3819057,26.6675735 C40.8437358,26.8320294 41.0943774,27.3308529 40.9528113,27.8031765 L36.1728302,43.7320147 C35.6738679,43.5800294 35.1656226,43.5028676 34.6558302,43.5028676 C34.5475283,43.5028676 34.4369057,43.5067647 34.3255094,43.5137794 L38.9476792,28.1118235 L21.4909623,21.8827647 L21.4909623,45.1801618 C21.4708491,45.1996471 20.6036604,46.1380588 20.6036604,46.1380588 C20.6036604,46.1380588 19.6691698,45.1256029 19.6606604,45.1170294 L19.6606604,45.1170294 Z M20.8976226,19.769 C20.9989623,19.769 21.096434,19.7853676 21.1869434,19.8181029 L32.5563208,23.8749412 L32.5563208,15.3606471 L8.5945283,15.3606471 L8.5945283,23.8749412 L19.9639057,19.8181029 C20.0551887,19.7853676 20.1526604,19.769 20.2547736,19.769 C20.2957736,19.769 20.3367736,19.7721176 20.3777736,19.7767941 L20.4280566,19.7830294 L20.582,19.7658824 L20.7227925,19.7830294 L20.7738491,19.7767941 C20.8140755,19.7713382 20.8558491,19.769 20.8976226,19.769 L20.8976226,19.769 Z" id="Fill-1" sketch:type="MSShapeGroup"></path>
            <path d="M28.157717,10.2469265 L28.157717,6.69904412 L12.9939057,6.69904412 L12.9939057,10.2469265 L11.1636038,10.2469265 L11.1636038,5.777 C11.1636038,5.26882353 11.5736038,4.85495588 12.0787547,4.85495588 L19.6606604,4.85495588 L19.6606604,0.985955882 C19.6606604,0.477779412 20.071434,0.0639117647 20.5758113,0.0639117647 C21.0809623,0.0639117647 21.4909623,0.477779412 21.4909623,0.985955882 L21.4909623,4.85495588 L29.0736415,4.85495588 C29.5780189,4.85495588 29.9887925,5.26882353 29.9887925,5.777 L29.9887925,10.2469265 L28.157717,10.2469265" id="Fill-2" sketch:type="MSShapeGroup"></path>
            <path d="M12.8500189,29.5802353 C12.4717358,29.5802353 12.1274906,29.3401765 11.9936604,28.9832059 C11.9077925,28.7532794 11.9155283,28.5023088 12.0160943,28.2778382 C12.1166604,28.0541471 12.2984528,27.8818971 12.5266604,27.7953824 L15.4655094,26.6777059 C15.5691698,26.6379559 15.6782453,26.6184706 15.7880943,26.6184706 C16.1671509,26.6184706 16.5113962,26.85775 16.6452264,27.2147206 C16.7310943,27.4454265 16.7233585,27.6956176 16.6227925,27.9200882 C16.5214528,28.1445588 16.340434,28.3160294 16.1114528,28.4033235 L13.1726038,29.521 C13.0689434,29.5599706 12.9598679,29.5802353 12.8500189,29.5802353" id="Fill-3" sketch:type="MSShapeGroup"></path>
            <path d="M28.3016038,29.5802353 C28.1917547,29.5802353 28.0834528,29.5599706 27.9790189,29.521 L25.0401698,28.4033235 C24.8111887,28.3160294 24.6301698,28.1445588 24.5288302,27.9200882 C24.4290377,27.6956176 24.4205283,27.4454265 24.5071698,27.2147206 C24.6402264,26.85775 24.9844717,26.6176912 25.3635283,26.6176912 C25.4733774,26.6176912 25.5816792,26.6379559 25.6861132,26.6777059 L28.6249623,27.7953824 C28.8539434,27.8818971 29.0349623,28.0541471 29.1363019,28.2778382 C29.2360943,28.5023088 29.2446038,28.7532794 29.1579623,28.9832059 C29.0241321,29.3401765 28.6806604,29.5802353 28.3016038,29.5802353" id="Fill-4" sketch:type="MSShapeGroup"></path>
            <path d="M39.3329245,52.7700735 C39.0753208,52.7700735 38.8378302,52.6648529 38.6622264,52.4754559 L34.9118868,48.4116029 L34.4345849,48.4100441 L34.2744528,48.5511176 L31.734,51.3032206 C31.2853208,51.7895735 30.6571698,52.0678235 30.0104528,52.0678235 C29.3637358,52.0678235 28.7355849,51.7895735 28.2869057,51.304 L25.6443396,48.4404412 L25.461,48.4100441 L25.1090189,48.4100441 L22.3272075,51.42325 C21.8793019,51.9103824 21.2511509,52.1894118 20.604434,52.1894118 C19.957717,52.1894118 19.3287925,51.9103824 18.8801132,51.42325 L16.0147547,48.3196324 L15.5088302,48.3180735 L12.8670377,51.1824118 C12.4183585,51.6687647 11.7902075,51.9477941 11.1434906,51.9477941 C10.4967736,51.9477941 9.86784906,51.6687647 9.4199434,51.1824118 L6.83075472,48.3773088 L6.6574717,48.3188529 L6.27532075,48.3188529 L6.1399434,48.4599265 L2.48939623,52.4146618 C2.31456604,52.6048382 2.07630189,52.7085 1.81869811,52.7085 C1.58662264,52.7085 1.36537736,52.6212059 1.19596226,52.4622059 C0.826188679,52.1161471 0.805301887,51.5308088 1.14877358,51.15825 L4.79932075,47.2035147 C5.248,46.7171618 5.87615094,46.4381324 6.52286792,46.4381324 C7.16958491,46.4381324 7.79850943,46.7171618 8.24641509,47.2035147 L10.8897547,50.0670735 L11.3956792,50.0686324 L14.0374717,47.2035147 C14.4861509,46.7171618 15.1150755,46.4381324 15.7610189,46.4381324 C16.4077358,46.4381324 17.0366604,46.7171618 17.484566,47.2035147 L20.3499245,50.3071324 L20.8334151,50.3086912 L20.9873585,50.1676176 L23.6392075,47.2954853 C24.0878868,46.8083529 24.7160377,46.5293235 25.3627547,46.5293235 C26.0102453,46.5293235 26.6383962,46.8091324 27.0870755,47.2954853 L29.756717,50.1886618 L30.2641887,50.1886618 L32.9346038,47.2954853 C33.3825094,46.8091324 34.0106604,46.5301029 34.6566038,46.5301029 C35.3040943,46.5301029 35.9330189,46.8091324 36.3816981,47.2954853 L40.0028491,51.2198235 C40.1691698,51.3998676 40.2565849,51.63525 40.2473019,51.8807647 C40.2387925,52.1270588 40.1351321,52.3554265 39.9556604,52.523 C39.7862453,52.682 39.565,52.7700735 39.3329245,52.7700735" id="Fill-5" sketch:type="MSShapeGroup"></path>
        </g>
    </g>
</svg>