<?xml version="1.0" encoding="UTF-8" standalone="no"?>
<svg width="205px" height="59px" viewBox="0 0 205 59" version="1.1" xmlns="http://www.w3.org/2000/svg" xmlns:xlink="http://www.w3.org/1999/xlink" xmlns:sketch="http://www.bohemiancoding.com/sketch/ns">
    <!-- Generator: Sketch 3.0.4 (8053) - http://www.bohemiancoding.com/sketch -->
    <title>logo</title>
    <desc>Created with Sketch.</desc>
    <defs></defs>
    <g id="Page-1" stroke="none" stroke-width="1" fill="none" fill-rule="evenodd" sketch:type="MSPage">
        <g id="logo" sketch:type="MSLayerGroup" transform="translate(0.000000, 1.000000)">
            <path d="M61.9273866,17.4732199 L63.4396154,14.442 C63.9511045,14.8261986 64.6182643,15.1881844 65.3517357,15.1881844 C66.307998,15.1881844 66.7305325,14.8261986 67.1753057,14.0573901 L61.8161933,3.26733333 L66.1300888,3.26733333 L69.3320513,10.3248227 L72.5562525,3.26733333 L76.8697436,3.26733333 L70.8442801,15.3918014 C69.9102564,17.2469787 68.4202663,18.6270496 65.6853156,18.6270496 C64.2624458,18.6270496 62.8391716,18.2194043 61.9273866,17.4732199" id="Fill-1" fill="#FFFFFF" sketch:type="MSShapeGroup"></path>
            <path d="M77.9683333,18.3555603 L77.9683333,3.26733333 L81.7929783,3.26733333 L81.7929783,12.1569645 L87.7966075,3.26733333 L91.7546844,3.26733333 L91.7546844,18.3555603 L87.9078008,18.3555603 L87.9078008,9.03524823 L81.6595464,18.3555603 L77.9683333,18.3555603" id="Fill-2" fill="#FFFFFF" sketch:type="MSShapeGroup"></path>
            <path d="M105.268915,18.3555603 L93.9728895,18.3555603 L93.9728895,3.26733333 L97.7975345,3.26733333 L97.7975345,14.9619433 L103.957239,14.9619433 L103.957239,3.26733333 L107.781479,3.26733333 L107.781479,14.9619433 L109.115394,14.9619433 L109.115394,21.1375035 L105.268915,21.1375035 L105.268915,18.3555603" id="Fill-3" fill="#FFFFFF" sketch:type="MSShapeGroup"></path>
            <path d="M116.0114,18.3555603 L116.0114,3.26733333 L123.437899,3.26733333 C126.773698,3.26733333 128.597268,5.55195745 128.597268,8.28906383 C128.597268,11.0031348 126.773698,13.2881702 123.437899,13.2881702 L119.836045,13.2881702 L119.836045,18.3555603 L116.0114,18.3555603 L116.0114,18.3555603 Z M124.705503,8.28906383 C124.705503,7.24876596 123.949793,6.66012766 122.927219,6.66012766 L119.836045,6.66012766 L119.836045,9.89496454 L122.927219,9.89496454 C123.949793,9.89496454 124.705503,9.30714894 124.705503,8.28906383 L124.705503,8.28906383 Z" id="Fill-4" fill="#FFFFFF" sketch:type="MSShapeGroup"></path>
            <path d="M129.332357,10.8225532 C129.332357,6.23068085 132.734467,3.01805674 137.27075,3.01805674 C141.806223,3.01805674 145.186095,6.23068085 145.186095,10.8225532 C145.186095,15.4144255 141.806223,18.6270496 137.27075,18.6270496 C132.734467,18.6270496 129.332357,15.4144255 129.332357,10.8225532 L129.332357,10.8225532 Z M141.295138,10.8225532 C141.295138,8.35693617 139.716598,6.45692199 137.27075,6.45692199 C134.802258,6.45692199 133.223314,8.35693617 133.223314,10.8225532 C133.223314,13.2655461 134.802258,15.1881844 137.27075,15.1881844 C139.716598,15.1881844 141.295138,13.2655461 141.295138,10.8225532 L141.295138,10.8225532 Z" id="Fill-5" fill="#FFFFFF" sketch:type="MSShapeGroup"></path>
            <path d="M156.884438,18.3555603 L156.884438,12.2927092 L150.725542,12.2927092 L150.725542,18.3555603 L146.900493,18.3555603 L146.900493,3.26733333 L150.725542,3.26733333 L150.725542,8.89950355 L156.884438,8.89950355 L156.884438,3.26733333 L160.709083,3.26733333 L160.709083,18.3555603 L156.884438,18.3555603" id="Fill-6" fill="#FFFFFF" sketch:type="MSShapeGroup"></path>
            <path d="M171.988126,18.3555603 L168.096765,12.6777305 L167.09643,13.9442695 L167.09643,18.3555603 L163.271785,18.3555603 L163.271785,3.26733333 L167.09643,3.26733333 L167.09643,9.46510638 L171.654546,3.26733333 L176.368738,3.26733333 L170.608925,10.3248227 L176.679675,18.3555603 L171.988126,18.3555603" id="Fill-7" fill="#FFFFFF" sketch:type="MSShapeGroup"></path>
            <path d="M181.249921,18.3555603 L181.249921,6.66012766 L177.092101,6.66012766 L177.092101,3.26733333 L189.210148,3.26733333 L189.210148,6.66012766 L185.074566,6.66012766 L185.074566,18.3555603 L181.249921,18.3555603" id="Fill-8" fill="#FFFFFF" sketch:type="MSShapeGroup"></path>
            <path d="M188.959053,15.1881844 C190.382327,14.9619433 191.226992,14.3515035 191.649527,10.9130496 L192.539073,3.26733333 L203.590473,3.26733333 L203.590473,14.9619433 L204.924389,14.9619433 L204.924389,21.1375035 L201.077505,21.1375035 L201.077505,18.3555603 L192.783698,18.3555603 L192.783698,21.1375035 L188.959053,21.1375035 L188.959053,15.1881844 L188.959053,15.1881844 Z M193.828511,14.9619433 L199.765828,14.9619433 L199.765828,6.66012766 L195.985256,6.66012766 L195.451529,11.2071631 C195.251785,12.9039716 194.67358,14.1026383 193.828511,14.9619433 L193.828511,14.9619433 Z" id="Fill-9" fill="#FFFFFF" sketch:type="MSShapeGroup"></path>
            <path d="M62.6390237,30.567234 C62.6390237,25.9074894 66.1078501,22.7627376 70.6663708,22.7627376 C74.2459862,22.7627376 76.1585108,24.8215319 77.1370118,26.8120426 L73.8456903,28.3957305 C73.3568442,27.1966525 72.0892406,26.2016028 70.6663708,26.2016028 C68.242357,26.2016028 66.5303846,28.101617 66.5303846,30.567234 C66.5303846,33.0328511 68.242357,34.9328652 70.6663708,34.9328652 C72.0892406,34.9328652 73.3568442,33.9378156 73.8456903,32.7387376 L77.1370118,34.3224255 C76.1807495,36.2676879 74.2459862,38.3717305 70.6663708,38.3717305 C66.1078501,38.3717305 62.6390237,35.2043546 62.6390237,30.567234" id="Fill-10" fill="#FFFFFF" sketch:type="MSShapeGroup"></path>
            <path d="M85.7437771,38.1002411 L85.7437771,30.2052482 L81.8968935,30.2052482 L81.8968935,38.1002411 L78.4725444,38.1002411 L78.4725444,27.1740284 L89.1681262,27.1740284 L89.1681262,38.1002411 L85.7437771,38.1002411" id="Fill-11" fill="#FFFFFF" sketch:type="MSShapeGroup"></path>
            <path d="M90.7260454,32.625617 C90.7260454,29.4590638 93.0829389,26.902539 96.4409763,26.902539 C99.6202959,26.902539 101.933116,29.2776596 101.933116,32.9876028 L101.933116,33.7341986 L94.2838264,33.7341986 C94.4839744,34.7522837 95.4175937,35.6798723 96.9742998,35.6798723 C97.7304142,35.6798723 99.0420907,35.3405106 99.6429389,34.7522837 L101.088047,36.9237872 C100.020592,37.8962128 98.2419034,38.3717305 96.5962426,38.3717305 C93.2830868,38.3717305 90.7260454,36.1771915 90.7260454,32.625617 L90.7260454,32.625617 Z M96.4409763,29.5948085 C94.9509862,29.5948085 94.3723767,30.6799433 94.2393491,31.4717872 L98.6644379,31.4717872 C98.5754832,30.7029787 98.0195168,29.5948085 96.4409763,29.5948085 L96.4409763,29.5948085 Z" id="Fill-12" fill="#FFFFFF" sketch:type="MSShapeGroup"></path>
            <path d="M110.205897,38.1002411 L107.8486,34.2319291 L106.826026,35.4762553 L106.826026,38.1002411 L103.401677,38.1002411 L103.401677,27.1740284 L106.826026,27.1740284 L106.826026,31.5396596 L110.094704,27.1740284 L114.23069,27.1740284 L110.272613,32.150922 L114.431243,38.1002411 L110.205897,38.1002411" id="Fill-13" fill="#FFFFFF" sketch:type="MSShapeGroup"></path>
            <path d="M117.367554,38.1002411 L117.367554,30.2052482 L114.432051,30.2052482 L114.432051,27.1740284 L123.703955,27.1740284 L123.703955,30.2052482 L120.791499,30.2052482 L120.791499,38.1002411 L117.367554,38.1002411" id="Fill-14" fill="#FFFFFF" sketch:type="MSShapeGroup"></path>
            <path d="M128.508718,36.8106667 L128.508718,42.2622553 L125.084773,42.2622553 L125.084773,27.1740284 L128.508718,27.1740284 L128.508718,28.4409787 C129.353787,27.4002695 130.464911,26.902539 131.688037,26.902539 C134.378915,26.902539 136.402229,28.9382979 136.402229,32.625617 C136.402229,36.3355603 134.378915,38.3717305 131.688037,38.3717305 C130.48715,38.3717305 129.39786,37.8962128 128.508718,36.8106667 L128.508718,36.8106667 Z M132.911568,32.625617 C132.911568,30.9970922 131.888185,29.9790071 130.55427,29.9790071 C129.820394,29.9790071 128.931252,30.3862411 128.508718,30.9744681 L128.508718,34.2993901 C128.931252,34.8649929 129.820394,35.2948511 130.55427,35.2948511 C131.888185,35.2948511 132.911568,34.2771773 132.911568,32.625617 L132.911568,32.625617 Z" id="Fill-15" fill="#FFFFFF" sketch:type="MSShapeGroup"></path>
            <path d="M52.7618245,3.29859574 L52.7618245,14.501234 L34.1767751,33.3742695 C32.7595661,34.8329078 30.7948817,35.7423972 28.6199408,35.7551489 C24.2696548,35.7822979 20.7211736,32.2134468 20.6952959,27.7881702 C20.6827613,25.5755319 21.5524951,23.5665106 22.9705128,22.107461 L41.3922091,3.29859574 L52.7618245,3.29859574" id="Fill-16" fill="#B01C33" sketch:type="MSShapeGroup"></path>
            <path d="M38.5836686,37.5930496 C38.5565779,37.6214326 38.5254438,37.6457021 38.4987574,37.6740851 C35.9566765,40.5901277 32.2650592,42.4498298 28.1319034,42.4753333 C20.4154931,42.5209929 14.122357,36.1952908 14.077071,28.3447234 C14.0524063,24.1403404 15.8355424,20.3621135 18.6727909,17.7430638 C18.6998817,17.7146809 18.722929,17.6834184 18.7500197,17.6550355 L35.1577022,0.764283688 C32.8351775,0.145205674 30.3982249,-0.18387234 27.8832347,-0.16906383 C12.4500099,-0.0756879433 0.0125345168,12.7279149 0.103915187,28.4290496 C0.195700197,44.1289504 12.7811637,56.7824113 28.2147929,56.6886241 C43.6484221,56.5960709 56.0854931,43.7920567 55.9941124,28.0913333 C55.9795562,25.5331631 55.6273767,23.0580851 54.9905424,20.7035319 L38.5836686,37.5930496" id="Fill-17" fill="#FFFFFF" sketch:type="MSShapeGroup"></path>
            <path id="Fill-18" fill="#FFFFFF" sketch:type="MSShapeGroup" d="M62.6657101,44.3486099 L204.936923,44.3486099 L204.936923,44.7599574 L62.6657101,44.7599574 L62.6657101,44.3486099 Z"></path>
            <path d="M66.2044872,56.5146241 L66.2044872,52.054383 L63.6664497,52.054383 L63.6664497,56.5146241 L62.5217653,56.5146241 L62.5217653,51.0260142 L67.356854,51.0260142 L67.356854,56.5146241 L66.2044872,56.5146241" id="Fill-19" fill="#FFFFFF" sketch:type="MSShapeGroup"></path>
            <path d="M68.8605917,56.5146241 L68.8605917,51.0260142 L71.3747732,51.0260142 C72.5429093,51.0260142 73.1793393,51.8322553 73.1793393,52.7952199 C73.1793393,53.7495461 72.5348225,54.5644255 71.3747732,54.5644255 L70.0044675,54.5644255 L70.0044675,56.5146241 L68.8605917,56.5146241 L68.8605917,56.5146241 Z M72.0112032,52.7952199 C72.0112032,52.3345106 71.6727712,52.054383 71.2215286,52.054383 L70.0044675,52.054383 L70.0044675,53.5360567 L71.2215286,53.5360567 C71.6727712,53.5360567 72.0112032,53.2481135 72.0112032,52.7952199 L72.0112032,52.7952199 Z" id="Fill-20" fill="#FFFFFF" sketch:type="MSShapeGroup"></path>
            <path d="M74.1453057,53.7746383 C74.1453057,52.1201986 75.3296154,50.9359291 76.9493984,50.9359291 C78.5772682,50.9359291 79.7615779,52.1201986 79.7615779,53.7746383 C79.7615779,55.4286667 78.5772682,56.6133475 76.9493984,56.6133475 C75.3296154,56.6133475 74.1453057,55.4286667 74.1453057,53.7746383 L74.1453057,53.7746383 Z M78.5849507,53.7746383 C78.5849507,52.7458582 77.9404339,51.9725248 76.9493984,51.9725248 C75.9579586,51.9725248 75.3215286,52.7458582 75.3215286,53.7746383 C75.3215286,54.7947801 75.9579586,55.5767518 76.9493984,55.5767518 C77.9404339,55.5767518 78.5849507,54.7947801 78.5849507,53.7746383 L78.5849507,53.7746383 Z" id="Fill-21" fill="#FFFFFF" sketch:type="MSShapeGroup"></path>
            <path d="M85.6584615,56.5146241 L85.6584615,52.6718156 L84.1438067,56.5146241 L83.6440434,56.5146241 L82.1289842,52.6718156 L82.1289842,56.5146241 L80.9851085,56.5146241 L80.9851085,51.0260142 L82.5883136,51.0260142 L83.893925,54.3422979 L85.1991321,51.0260142 L86.8108284,51.0260142 L86.8108284,56.5146241 L85.6584615,56.5146241" id="Fill-22" fill="#FFFFFF" sketch:type="MSShapeGroup"></path>
            <path d="M89.469359,51.0260142 L89.469359,52.9766241 L90.838856,52.9766241 C91.9993097,52.9766241 92.6438264,53.7910922 92.6438264,54.7454184 C92.6438264,55.708383 92.0073964,56.5146241 90.838856,56.5146241 L88.3246746,56.5146241 L88.3246746,51.0260142 L89.469359,51.0260142 L89.469359,51.0260142 Z M89.469359,54.0049929 L89.469359,55.485844 L90.6860158,55.485844 C91.1372584,55.485844 91.4756903,55.2061277 91.4756903,54.7454184 C91.4756903,54.2929362 91.1372584,54.0049929 90.6860158,54.0049929 L89.469359,54.0049929 L89.469359,54.0049929 Z M93.095069,51.0260142 L94.2474359,51.0260142 L94.2474359,56.5146241 L93.095069,56.5146241 L93.095069,51.0260142 Z" id="Fill-23" fill="#FFFFFF" sketch:type="MSShapeGroup"></path>
            <path d="M102.618876,51.0260142 L102.618876,56.5146241 L95.7616864,56.5146241 L95.7616864,51.0260142 L96.9059665,51.0260142 L96.9059665,55.485844 L98.6142998,55.485844 L98.6142998,51.0260142 L99.7662623,51.0260142 L99.7662623,55.485844 L101.466509,55.485844 L101.466509,51.0260142 L102.618876,51.0260142" id="Fill-24" fill="#FFFFFF" sketch:type="MSShapeGroup"></path>
            <path d="M103.761943,55.5767518 C104.301736,55.5767518 104.615907,55.2801702 104.784921,53.832227 L105.099497,51.0260142 L108.918886,51.0260142 L108.918886,56.5146241 L107.766114,56.5146241 L107.766114,52.054383 L106.130562,52.054383 L105.921114,53.9144965 C105.66355,56.193773 104.857298,56.6133475 103.761943,56.6133475 L103.761943,55.5767518" id="Fill-25" fill="#FFFFFF" sketch:type="MSShapeGroup"></path>
            <path d="M110.425454,56.5146241 L110.425454,51.0260142 L114.228669,51.0260142 L114.228669,52.054383 L111.569734,52.054383 L111.569734,53.2152057 L114.172061,53.2152057 L114.172061,54.2435745 L111.569734,54.2435745 L111.569734,55.485844 L114.228669,55.485844 L114.228669,56.5146241 L110.425454,56.5146241" id="Fill-26" fill="#FFFFFF" sketch:type="MSShapeGroup"></path>
            <path d="M119.3007,56.5146241 L119.3007,54.2106667 L116.762258,54.2106667 L116.762258,56.5146241 L115.617978,56.5146241 L115.617978,51.0260142 L116.762258,51.0260142 L116.762258,53.1822979 L119.3007,53.1822979 L119.3007,51.0260142 L120.452663,51.0260142 L120.452663,56.5146241 L119.3007,56.5146241" id="Fill-27" fill="#FFFFFF" sketch:type="MSShapeGroup"></path>
            <path d="M125.641144,56.5146241 L125.641144,54.2106667 L123.103511,54.2106667 L123.103511,56.5146241 L121.959231,56.5146241 L121.959231,51.0260142 L123.103511,51.0260142 L123.103511,53.1822979 L125.641144,53.1822979 L125.641144,51.0260142 L126.793915,51.0260142 L126.793915,56.5146241 L125.641144,56.5146241" id="Fill-28" fill="#FFFFFF" sketch:type="MSShapeGroup"></path>
            <path d="M129.444359,51.0260142 L129.444359,52.9766241 L130.813856,52.9766241 C131.974714,52.9766241 132.618826,53.7910922 132.618826,54.7454184 C132.618826,55.708383 131.981992,56.5146241 130.813856,56.5146241 L128.300079,56.5146241 L128.300079,51.0260142 L129.444359,51.0260142 L129.444359,51.0260142 Z M129.444359,54.0049929 L129.444359,55.485844 L130.661016,55.485844 C131.112258,55.485844 131.45069,55.2061277 131.45069,54.7454184 C131.45069,54.2929362 131.112258,54.0049929 130.661016,54.0049929 L129.444359,54.0049929 L129.444359,54.0049929 Z M133.070473,51.0260142 L134.22284,51.0260142 L134.22284,56.5146241 L133.070473,56.5146241 L133.070473,51.0260142 Z" id="Fill-29" fill="#FFFFFF" sketch:type="MSShapeGroup"></path>
            <path d="M135.736282,56.5146241 L135.736282,51.0260142 L136.880562,51.0260142 L136.880562,54.5726525 L139.370483,51.0260142 L140.54711,51.0260142 L140.54711,56.5146241 L139.40283,56.5146241 L139.40283,52.8363546 L136.840533,56.5146241 L135.736282,56.5146241 L135.736282,56.5146241 Z M138.14574,50.7709787 C137.5736,50.7709787 137.058067,50.4912624 136.727722,50.0465957 L137.178964,49.6603404 C137.396499,49.9729645 137.726844,50.1704113 138.14574,50.1704113 C138.548462,50.1704113 138.879211,49.9807801 139.104428,49.6603404 L139.556075,50.0465957 C139.233817,50.4912624 138.726371,50.7709787 138.14574,50.7709787 L138.14574,50.7709787 Z" id="Fill-30" fill="#FFFFFF" sketch:type="MSShapeGroup"></path>
            <path d="M148.208126,56.5146241 L146.862485,54.5068369 L145.508353,56.5146241 L144.146943,56.5146241 L146.097071,53.7001844 L144.26784,51.0260142 L145.629655,51.0260142 L146.862485,52.9021702 L148.079546,51.0260142 L149.45713,51.0260142 L147.627899,53.6923688 L149.578028,56.5146241 L148.208126,56.5146241" id="Fill-31" fill="#FFFFFF" sketch:type="MSShapeGroup"></path>
            <path d="M150.000562,53.7746383 C150.000562,52.1201986 151.185276,50.9359291 152.804655,50.9359291 C154.43212,50.9359291 155.616834,52.1201986 155.616834,53.7746383 C155.616834,55.4286667 154.43212,56.6133475 152.804655,56.6133475 C151.185276,56.6133475 150.000562,55.4286667 150.000562,53.7746383 L150.000562,53.7746383 Z M154.440207,53.7746383 C154.440207,52.7458582 153.79569,51.9725248 152.804655,51.9725248 C151.813619,51.9725248 151.177189,52.7458582 151.177189,53.7746383 C151.177189,54.7947801 151.813619,55.5767518 152.804655,55.5767518 C153.79569,55.5767518 154.440207,54.7947801 154.440207,53.7746383 L154.440207,53.7746383 Z" id="Fill-32" fill="#FFFFFF" sketch:type="MSShapeGroup"></path>
            <path d="M156.376588,55.5767518 C156.915976,55.5767518 157.230148,55.2801702 157.399566,53.832227 L157.714142,51.0260142 L161.533531,51.0260142 L161.533531,56.5146241 L160.380759,56.5146241 L160.380759,52.054383 L158.745207,52.054383 L158.535759,53.9144965 C158.277791,56.193773 157.471943,56.6133475 156.376588,56.6133475 L156.376588,55.5767518" id="Fill-33" fill="#FFFFFF" sketch:type="MSShapeGroup"></path>
            <path d="M162.664872,55.5767518 C163.212751,55.5022979 163.518836,55.2801702 163.68785,53.832227 L164.002426,51.0260142 L167.822219,51.0260142 L167.822219,55.485844 L168.305404,55.485844 L168.305404,57.5269504 L167.161124,57.5269504 L167.161124,56.5146241 L163.808748,56.5146241 L163.808748,57.5269504 L162.664872,57.5269504 L162.664872,55.5767518 L162.664872,55.5767518 Z M164.17144,55.485844 L166.669448,55.485844 L166.669448,52.054383 L165.033491,52.054383 L164.824043,53.9144965 C164.743984,54.6553333 164.509872,55.1654043 164.17144,55.485844 L164.17144,55.485844 Z" id="Fill-34" fill="#FFFFFF" sketch:type="MSShapeGroup"></path>
            <path d="M169.492544,56.5146241 L169.492544,51.0260142 L170.636824,51.0260142 L170.636824,54.5726525 L173.126746,51.0260142 L174.302968,51.0260142 L174.302968,56.5146241 L173.158688,56.5146241 L173.158688,52.8363546 L170.596391,56.5146241 L169.492544,56.5146241" id="Fill-35" fill="#FFFFFF" sketch:type="MSShapeGroup"></path>
            <path d="M179.495493,56.5146241 L179.495493,54.2106667 L176.957456,54.2106667 L176.957456,56.5146241 L175.813176,56.5146241 L175.813176,51.0260142 L176.957456,51.0260142 L176.957456,53.1822979 L179.495493,53.1822979 L179.495493,51.0260142 L180.64786,51.0260142 L180.64786,56.5146241 L179.495493,56.5146241" id="Fill-36" fill="#FFFFFF" sketch:type="MSShapeGroup"></path>
            <path d="M182.154428,56.5146241 L182.154428,51.0260142 L185.957643,51.0260142 L185.957643,52.054383 L183.298708,52.054383 L183.298708,56.5146241 L182.154428,56.5146241" id="Fill-37" fill="#FFFFFF" sketch:type="MSShapeGroup"></path>
            <path d="M191.089112,56.5146241 L191.089112,52.054383 L189.517446,52.054383 L189.517446,51.0260142 L193.80425,51.0260142 L193.80425,52.054383 L192.241075,52.054383 L192.241075,56.5146241 L191.089112,56.5146241" id="Fill-38" fill="#FFFFFF" sketch:type="MSShapeGroup"></path>
            <path d="M198.122998,56.5146241 L196.495533,54.317617 L196.076637,54.8280993 L196.076637,56.5146241 L194.932357,56.5146241 L194.932357,51.0260142 L196.076637,51.0260142 L196.076637,53.4780567 L197.97784,51.0260142 L199.388176,51.0260142 L197.252456,53.6018723 L199.532929,56.5146241 L198.122998,56.5146241" id="Fill-39" fill="#FFFFFF" sketch:type="MSShapeGroup"></path>
            <path d="M199.859231,53.7746383 C199.859231,52.0872908 201.108639,50.9359291 202.719931,50.9359291 C203.904645,50.9359291 204.589596,51.5936738 204.968462,52.276922 L203.985108,52.7709504 C203.759892,52.3258723 203.275897,51.9725248 202.719931,51.9725248 C201.745069,51.9725248 201.035858,52.7376312 201.035858,53.7746383 C201.035858,54.8116454 201.745069,55.5767518 202.719931,55.5767518 C203.275897,55.5767518 203.759892,55.2308085 203.985108,54.7783262 L204.968462,55.2637163 C204.581509,55.9469645 203.904645,56.6133475 202.719931,56.6133475 C201.108639,56.6133475 199.859231,55.4615745 199.859231,53.7746383" id="Fill-40" fill="#FFFFFF" sketch:type="MSShapeGroup"></path>
        </g>
    </g>
</svg>