<svg width="15" height="15" viewBox="0 0 15 15" xmlns="http://www.w3.org/2000/svg"><path d="M11.776 15h-.113c-1.94 0-5.872-1.954-7.79-3.873C1.953 9.21 0 5.277 0 3.337v-.113l.062-.093C.53 2.43 2.137.145 3.194.145c.883 0 2.69 1.64 3.222 2.925.324.78.105 1.23-.136 1.472-.39.39-.78.632-1.093.825-.506.313-.68.44-.68.795 0 .787.9 1.688 1.773 2.56.872.872 1.774 1.773 2.56 1.773.356 0 .483-.174.795-.68.194-.313.435-.703.824-1.093.194-.195.454-.298.753-.298 1.356 0 3.643 2.306 3.643 3.384 0 1.057-2.287 2.664-2.988 3.132l-.094.062" id="Fill-1" fill="#0045D2" fill-rule="evenodd"/></svg>