<svg width="14" height="17" viewBox="0 0 14 17" xmlns="http://www.w3.org/2000/svg"><path d="M7.468.097C3.1.097.898 3.227.898 5.837c0 1.582.6 2.988 1.883 3.512.21.084.4 0 .46-.23.045-.163.145-.57.19-.74.06-.23.038-.31-.132-.51-.37-.438-.607-1.003-.607-1.804 0-2.322 1.74-4.4 4.526-4.4 2.468 0 3.824 1.506 3.824 3.52 0 2.65-1.174 4.887-2.915 4.887-.962 0-1.68-.796-1.45-1.77.276-1.165.81-2.42.81-3.26 0-.754-.402-1.38-1.238-1.38-.983 0-1.773 1.015-1.773 2.378 0 .868.294 1.455.294 1.455s-1.006 4.26-1.183 5.007c-.352 1.487-.053 3.31-.027 3.493.014.11.155.135.218.052.09-.118 1.26-1.563 1.66-3.007.112-.408.646-2.525.646-2.525.32.61 1.253 1.145 2.245 1.145 2.954 0 4.96-2.693 4.96-6.298 0-2.726-2.31-5.265-5.82-5.265" id="Fill-4" fill="#fff" fill-rule="evenodd"/></svg>