<svg width="15" height="15" viewBox="0 0 15 15" xmlns="http://www.w3.org/2000/svg"><path d="M14.844 12.573L11.54 9.226c.538-.94.818-1.983.818-3.035 0-3.41-2.774-6.19-6.18-6.19C2.775 0 0 2.778 0 6.19c0 3.414 2.774 6.192 6.18 6.192 1.086 0 2.162-.3 3.12-.873l3.288 3.333c.074.074.18.12.285.12.105 0 .21-.042.284-.12l1.687-1.706c.156-.16.156-.41 0-.565zM6.18 2.413c2.08 0 3.77 1.693 3.77 3.778S8.26 9.97 6.18 9.97 2.407 8.275 2.407 6.19c0-2.084 1.69-3.778 3.77-3.778z" id="Imported-Layers" fill="#0045D2" fill-rule="evenodd"/></svg>