<?xml version="1.0" encoding="UTF-8" standalone="no"?>
<svg width="54px" height="54px" viewBox="0 0 54 54" version="1.1" xmlns="http://www.w3.org/2000/svg" xmlns:xlink="http://www.w3.org/1999/xlink" xmlns:sketch="http://www.bohemiancoding.com/sketch/ns">
    <!-- Generator: Sketch 3.0.4 (8053) - http://www.bohemiancoding.com/sketch -->
    <title>shedule</title>
    <desc>Created with Sketch.</desc>
    <defs></defs>
    <g id="Page-1" stroke="none" stroke-width="1" fill="none" fill-rule="evenodd" sketch:type="MSPage">
        <g id="shedule" sketch:type="MSLayerGroup" fill="#FFFFFF">
            <path d="M49,5 L42,5 L42,3 C42,1.346 40.654,0 39,0 L38,0 C36.346,0 35,1.346 35,3 L35,5 L19,5 L19,3 C19,1.346 17.654,0 16,0 L15,0 C13.346,0 12,1.346 12,3 L12,5 L5,5 C2.243,5 0,7.243 0,10 L0,49 C0,51.757 2.243,54 5,54 L49,54 C51.757,54 54,51.757 54,49 L54,10 C54,7.243 51.757,5 49,5 L49,5 Z M5,7 L12,7 L12,9 C12,10.654 13.346,12 15,12 L18,12 C18.552,12 19,11.552 19,11 C19,10.448 18.552,10 18,10 L15,10 C14.449,10 14,9.551 14,9 L14,3 C14,2.449 14.449,2 15,2 L16,2 C16.551,2 17,2.449 17,3 L17,5 C16.448,5 16,5.448 16,6 C16,6.552 16.448,7 17,7 L35,7 L35,9 C35,10.654 36.346,12 38,12 L41,12 C41.552,12 42,11.552 42,11 C42,10.448 41.552,10 41,10 L38,10 C37.449,10 37,9.551 37,9 L37,3 C37,2.449 37.449,2 38,2 L39,2 C39.551,2 40,2.449 40,3 L40,5 C39.448,5 39,5.448 39,6 C39,6.552 39.448,7 40,7 L49,7 C50.654,7 52,8.346 52,10 L52,18 L2,18 L2,10 C2,8.346 3.346,7 5,7 L5,7 Z M49,52 L5,52 C3.346,52 2,50.654 2,49 L2,20 L52,20 L52,49 C52,50.654 50.654,52 49,52 L49,52 Z" id="Fill-1" sketch:type="MSShapeGroup"></path>
            <path d="M15.4,30.2 C14.958,30.531 14.869,31.158 15.2,31.6 C15.531,32.042 16.157,32.133 16.6,31.8 L19,30 L19,44 C19,44.552 19.448,45 20,45 C20.552,45 21,44.552 21,44 L21,28 L19.4,27.2 L15.4,30.2" id="Fill-2" sketch:type="MSShapeGroup"></path>
            <path d="M32.824,34.068 L31,34.024 L31,30 L37,30 C37.552,30 38,29.552 38,29 C38,28.448 37.552,28 37,28 L29,28 L29,35.976 L32.8,36.067 C34.674,36.067 36.199,37.592 36.199,39.467 C36.199,41.341 34.674,42.866 32.8,42.866 C31.476,42.866 30.263,42.088 29.71,40.884 C29.478,40.381 28.883,40.161 28.384,40.392 C27.882,40.623 27.662,41.216 27.892,41.718 C28.77,43.63 30.696,44.866 32.8,44.866 C35.777,44.866 38.199,42.444 38.199,39.467 C38.199,36.49 35.777,34.067 32.824,34.068" id="Fill-3" sketch:type="MSShapeGroup"></path>
        </g>
    </g>
</svg>