<svg width="17" height="14" viewBox="0 0 17 14" xmlns="http://www.w3.org/2000/svg"><path d="M16.208 2.135c-.588.262-1.22.438-1.885.517.678-.406 1.198-1.05 1.444-1.816-.635.376-1.338.65-2.085.796-.6-.637-1.453-1.036-2.396-1.036-1.813 0-3.283 1.47-3.283 3.282 0 .258.03.508.085.75C5.36 4.49 2.94 3.182 1.322 1.198 1.04 1.68.878 2.244.878 2.847c0 1.137.58 2.142 1.46 2.73C1.8 5.563 1.294 5.415.85 5.17v.042c0 1.59 1.133 2.917 2.633 3.22-.274.074-.564.114-.864.114-.214 0-.42-.02-.62-.06.418 1.305 1.63 2.254 3.066 2.28-1.123.88-2.537 1.405-4.076 1.405-.263 0-.524-.015-.782-.045 1.453.93 3.178 1.475 5.032 1.475 6.038 0 9.34-5.003 9.34-9.34 0-.143-.003-.285-.01-.425.642-.463 1.2-1.042 1.638-1.7" id="Fill-2" fill="#fff" fill-rule="evenodd"/></svg>