<svg width="47" height="47" viewBox="0 0 47 47" xmlns="http://www.w3.org/2000/svg"><g id="video" transform="translate(-603 -860) translate(604 861)" fill="#fff" fill-rule="evenodd"><path d="M22.916 45.938c-12.737 0-23.1-10.362-23.1-23.1 0-12.736 10.363-23.1 23.1-23.1 12.736 0 23.1 10.364 23.1 23.1 0 12.738-10.364 23.1-23.1 23.1zm0-44.2c-11.635 0-21.1 9.466-21.1 21.1 0 11.636 9.465 21.1 21.1 21.1 11.634 0 21.1-9.464 21.1-21.1 0-11.634-9.466-21.1-21.1-21.1z" id="Fill-1"/><path d="M18.574 29.508c-.436 0-.753-.344-.753-.818V16.987c0-.63.62-1.015 1.19-.7l10.557 5.868c.28.154.442.404.442.684s-.163.53-.446.682L19.01 29.39c-.144.08-.29.118-.436.118zm.247-12.18V28.35l9.917-5.51-9.915-5.512z" id="Fill-2"/></g></svg>